<svg width="20" height="20" viewBox="0 0 20 20" fill="none" xmlns="http://www.w3.org/2000/svg">
<path d="M10 0C4.48582 0 0 4.48582 0 10C0 15.5142 4.48582 20 10 20C15.5142 20 20 15.5142 20 10C20 4.48582 15.5142 0 10 0ZM13.5358 5.28582L14.125 4.69664C14.45 4.37082 14.9775 4.37082 15.3033 4.69664C15.6283 5.02164 15.6283 5.54914 15.3033 5.87496L14.7141 6.46414C14.5508 6.62664 14.3383 6.70832 14.125 6.70832C13.9116 6.70832 13.6983 6.62664 13.5358 6.46414C13.21 6.13832 13.21 5.61082 13.5358 5.28582ZM4.69668 4.69668C5.0225 4.37086 5.55 4.37086 5.875 4.69668L6.46418 5.28586C6.79 5.61086 6.79 6.13836 6.46418 6.46418C6.30168 6.62668 6.08836 6.70836 5.875 6.70836C5.66168 6.70836 5.44918 6.62668 5.28582 6.46418L4.69668 5.875C4.37168 5.54918 4.37168 5.02168 4.69668 4.69668ZM3.33332 10.8333C2.87332 10.8333 2.5 10.4608 2.5 10C2.5 9.53918 2.87332 9.16668 3.33332 9.16668H4.16664C4.62664 9.16668 4.99996 9.53918 4.99996 10C4.99996 10.4608 4.62664 10.8333 4.16664 10.8333H3.33332ZM6.46418 14.7142L5.875 15.3033C5.7125 15.4666 5.49918 15.5475 5.28582 15.5475C5.0725 15.5475 4.86 15.4667 4.69664 15.3033C4.37164 14.9783 4.37164 14.4508 4.69664 14.125L5.28582 13.5358C5.61164 13.2108 6.13914 13.2108 6.46414 13.5358C6.79 13.8617 6.79 14.3892 6.46418 14.7142ZM10.8333 16.6667C10.8333 17.1275 10.46 17.5 10 17.5C9.54 17.5 9.16668 17.1275 9.16668 16.6667V15.8334C9.16668 15.3725 9.54 15 10 15C10.46 15 10.8333 15.3725 10.8333 15.8334V16.6667ZM10.8333 10C10.8333 10.4608 10.46 10.8333 10 10.8333H7.5C7.04 10.8333 6.66668 10.4608 6.66668 10C6.66668 9.53918 7.04 9.16668 7.5 9.16668H9.16668V7.5C9.16668 7.03918 9.54 6.66668 10 6.66668C10.46 6.66668 10.8333 7.03918 10.8333 7.5V10ZM10.8333 4.16668C10.8333 4.6275 10.46 5 10 5C9.54 5 9.16668 4.6275 9.16668 4.16668V3.33332C9.16668 2.8725 9.54 2.5 10 2.5C10.46 2.5 10.8333 2.8725 10.8333 3.33332V4.16668ZM15.3033 15.3033C15.14 15.4666 14.9275 15.5475 14.7141 15.5475C14.5008 15.5475 14.2875 15.4667 14.125 15.3033L13.5358 14.7141C13.21 14.3891 13.21 13.8616 13.5358 13.5358C13.8608 13.2108 14.3883 13.2108 14.7141 13.5358L15.3033 14.125C15.6283 14.4508 15.6283 14.9783 15.3033 15.3033ZM16.6667 10.8333H15.8334C15.3733 10.8333 15 10.4608 15 10C15 9.53918 15.3733 9.16668 15.8333 9.16668H16.6666C17.1266 9.16668 17.5 9.53918 17.5 10C17.5 10.4608 17.1267 10.8333 16.6667 10.8333Z" fill="black"/>
</svg>
