<svg width="19" height="18" viewBox="0 0 19 18" fill="none" xmlns="http://www.w3.org/2000/svg">
<path fill-rule="evenodd" clip-rule="evenodd" d="M9.01299 16.4483C13.1325 16.4483 16.472 13.1136 16.472 9C16.472 4.88643 13.1325 1.55172 9.01299 1.55172C4.89349 1.55172 1.55396 4.88643 1.55396 9C1.55396 13.1136 4.89349 16.4483 9.01299 16.4483ZM9.01299 18C13.9907 18 18.026 13.9706 18.026 9C18.026 4.02944 13.9907 0 9.01299 0C4.03525 0 0 4.02944 0 9C0 13.9706 4.03525 18 9.01299 18Z" fill="black"/>
<path fill-rule="evenodd" clip-rule="evenodd" d="M9.01291 0.931201L4.70643 9.54327H13.3194L9.01291 0.931201ZM9.01291 4.40469L7.21929 7.99155H10.8065L9.01291 4.40469Z" fill="black"/>
<path fill-rule="evenodd" clip-rule="evenodd" d="M3.87075 11.9483H14.1549L15.3021 14.2392L13.9122 14.9332L13.1945 13.5H4.83115L4.11353 14.9332L2.72362 14.2392L3.87075 11.9483Z" fill="black"/>
</svg>
