<svg width="60" height="60" viewBox="0 0 60 60" fill="none" xmlns="http://www.w3.org/2000/svg">
<path d="M11.2046 31.7521V19.1188H15.3391V30.3739L16.2579 32.4412H19.4737V31.063L21.3113 30.3739L20.3925 28.3067V19.1188H24.2973V31.7521L20.3925 38.8727H15.3391L11.2046 31.7521Z" fill="#FEB104"/>
<path d="M31.1883 24.4018L33.4852 19.1188H43.8216V32.2115L40.1465 38.8727H38.3089V40.2509L43.8216 47.1419L48.4156 46.4528V49.4388L43.1325 54.2625L40.6059 53.5734L31.1883 44.3855L37.6198 39.7915L35.0931 35.1976L34.404 32.4412H37.1604L39.2277 32.2115L39.4574 23.483H34.404V27.3879L33.4852 29.2255L31.1883 24.4018Z" fill="#FEB104"/>
<path d="M11.2046 31.7521V19.1188H15.3391V30.3739L16.2579 32.4412H19.4737V31.063L21.3113 30.3739L20.3925 28.3067V19.1188H24.2973V31.7521L20.3925 38.8727H15.3391L11.2046 31.7521Z" stroke="black"/>
<path d="M31.1883 24.4018L33.4852 19.1188H43.8216V32.2115L40.1465 38.8727H38.3089V40.2509L43.8216 47.1419L48.4156 46.4528V49.4388L43.1325 54.2625L40.6059 53.5734L31.1883 44.3855L37.6198 39.7915L35.0931 35.1976L34.404 32.4412H37.1604L39.2277 32.2115L39.4574 23.483H34.404V27.3879L33.4852 29.2255L31.1883 24.4018Z" stroke="black"/>
<path d="M46.2694 45.3426L43.8396 45.95L39.2502 40.0492H39.4286C39.6058 40.0492 39.7798 40.0024 39.933 39.9135C40.0863 39.8245 40.2132 39.6967 40.3011 39.5428L44.3208 32.5084C44.4076 32.3565 44.4533 32.1847 44.4533 32.0098V18.9458C44.4532 18.6793 44.3474 18.4237 44.1589 18.2352C43.9705 18.0467 43.7148 17.9409 43.4483 17.9409H40.4335V13.9212C40.432 12.589 39.9022 11.3119 38.9602 10.3699C38.0182 9.42791 36.7411 8.89804 35.4089 8.89653H32.2213C32.3358 8.57387 32.3943 8.23399 32.3941 7.8916V6.50292L32.8186 6.29073C33.2961 6.05394 33.6978 5.68808 33.978 5.23464C34.2582 4.78121 34.4058 4.25833 34.404 3.7253V1.86204C34.404 1.59552 34.2981 1.33992 34.1097 1.15146C33.9212 0.962996 33.6656 0.857119 33.3991 0.857117H28.8036C28.2165 0.857133 27.6392 1.00721 27.1265 1.29309C26.6138 1.57898 26.1826 1.99118 25.874 2.49056C25.5654 2.98994 25.3895 3.55992 25.3631 4.14638C25.3368 4.73284 25.4607 5.31631 25.7233 5.84139L26.3646 7.12392V8.89652H23.4912C22.6639 8.89566 21.8491 9.09951 21.1197 9.48992C20.3902 9.88033 19.7687 10.4452 19.3105 11.1341L15.1493 17.3757C15.0295 17.5569 14.9214 17.7457 14.8259 17.9409H11.2907C11.0242 17.9409 10.7686 18.0467 10.5801 18.2352C10.3916 18.4237 10.2858 18.6793 10.2858 18.9458V32.0098C10.2857 32.1847 10.3314 32.3565 10.4182 32.5084L14.4379 39.5428C14.5261 39.6973 14.6538 39.8255 14.8079 39.9144V53.2487C14.6912 53.3159 14.5892 53.406 14.508 53.5135C14.4269 53.621 14.3682 53.7438 14.3355 53.8744L13.3305 57.8941C13.2935 58.0423 13.2907 58.197 13.3224 58.3463C13.3541 58.4957 13.4194 58.6359 13.5134 58.7563C13.6074 58.8767 13.7276 58.9741 13.8648 59.041C14.0021 59.108 14.1528 59.1428 14.3055 59.1428H21.34C21.4927 59.1428 21.6434 59.108 21.7806 59.041C21.9179 58.9741 22.038 58.8767 22.132 58.7563C22.226 58.6359 22.2913 58.4957 22.323 58.3463C22.3547 58.197 22.3519 58.0423 22.3149 57.8941L21.31 53.8744C21.2772 53.7438 21.2185 53.621 21.1374 53.5135C21.0562 53.406 20.9542 53.3159 20.8375 53.2487V39.9144C20.9916 39.8255 21.1193 39.6973 21.2075 39.5428L22.9438 36.5044L27.0199 40.935L24.4813 48.5507L22.6392 50.3928C22.471 50.561 22.3679 50.7834 22.3483 51.0205C22.3287 51.2575 22.3938 51.4939 22.5321 51.6875L27.5567 58.7219C27.6497 58.8521 27.7724 58.9582 27.9146 59.0314C28.0568 59.1046 28.2145 59.1428 28.3744 59.1428H30.3843C30.6508 59.1428 30.9064 59.0369 31.0949 58.8485C31.2833 58.66 31.3892 58.4044 31.3892 58.1379V52.2714L33.001 47.4361L33.9015 48.415V53.2487C33.7848 53.3159 33.6828 53.406 33.6016 53.5135C33.5205 53.621 33.4618 53.7438 33.4291 53.8744L32.4241 57.8942C32.3871 58.0423 32.3843 58.197 32.416 58.3463C32.4477 58.4957 32.513 58.6359 32.607 58.7563C32.701 58.8767 32.8212 58.9741 32.9584 59.041C33.0956 59.108 33.2464 59.1428 33.3991 59.1428H40.4335C40.5863 59.1428 40.737 59.108 40.8742 59.041C41.0115 58.9741 41.1316 58.8767 41.2256 58.7563C41.3196 58.6359 41.3849 58.4957 41.4166 58.3463C41.4483 58.197 41.4455 58.0423 41.4085 57.8942L40.638 54.812C41.2747 54.9819 41.9436 54.9914 42.5849 54.8397C43.2262 54.6881 43.82 54.38 44.3132 53.943L48.7412 50.0686C49.2045 49.6632 49.518 49.1138 49.6313 48.5087C49.7445 47.9036 49.651 47.278 49.3657 46.7326C49.0804 46.1871 48.6199 45.7534 48.0583 45.5013C47.4967 45.2492 46.8666 45.1933 46.2694 45.3426H46.2694ZM36.1766 47.9195L40.2107 44.5578L41.5844 46.324L37.6925 49.5672L36.1766 47.9195ZM35.4089 30H34.5226L35.3028 28.4396C35.3726 28.3 35.4089 28.1462 35.4089 27.9901V23.9704H38.4237V31.0049C38.4234 31.2713 38.3174 31.5268 38.129 31.7152C37.9406 31.9035 37.6852 32.0095 37.4188 32.0098H36.4138V31.0049C36.4138 30.7384 36.308 30.4828 36.1195 30.2943C35.931 30.1059 35.6754 30 35.4089 30V30ZM33.3991 23.9704V27.7529L33.3842 27.7826L32.4533 24.9897L32.8239 23.9704H33.3991ZM37.1281 40.5946L38.9761 42.9705L34.8142 46.4386L32.7751 44.2222L37.1281 40.5946ZM43.6266 48.0699C43.6484 48.066 43.6703 48.064 43.6921 48.0586L43.8664 48.015L45.4025 50.3193L44.1798 51.3892L43.6266 48.0699ZM38.8454 38.0394H37.6869L36.083 35.9772C36.0446 35.7975 35.9964 35.62 35.9385 35.4455L35.4633 34.0197H37.4188C38.2181 34.0188 38.9843 33.7009 39.5495 33.1357C40.1147 32.5705 40.4326 31.8042 40.4335 31.0049V23.9704H42.4434V31.7429L38.8454 38.0394ZM42.4434 21.9606H33.5548L34.2857 19.9507H42.4434V21.9606ZM28.3744 10.7335C28.6971 10.848 29.037 10.9065 29.3794 10.9064V11.4088C29.3794 11.5421 29.3264 11.6699 29.2322 11.7641C29.138 11.8584 29.0102 11.9113 28.8769 11.9113C28.7436 11.9113 28.6158 11.8584 28.5216 11.7641C28.4274 11.6699 28.3744 11.5421 28.3744 11.4088V10.7335ZM28.8036 2.86697H32.3941V3.7253C32.3947 3.8848 32.3506 4.04127 32.2667 4.17696C32.1829 4.31265 32.0627 4.42213 31.9198 4.49298L30.9399 4.98281L30.9399 4.98287L30.9397 4.98293C30.7938 5.0559 30.635 5.09942 30.4723 5.11099C30.3096 5.12256 30.1462 5.10196 29.9914 5.05037C29.8366 4.99878 29.6936 4.9172 29.5703 4.8103C29.4471 4.7034 29.3462 4.57327 29.2732 4.42735C29.202 4.28495 29.098 4.16151 28.9697 4.0672C28.8414 3.97289 28.6926 3.9104 28.5354 3.8849C28.3782 3.8594 28.2173 3.8716 28.0657 3.9205C27.9142 3.9694 27.7765 4.05361 27.6639 4.16618L27.3783 4.4517C27.3727 4.4017 27.3698 4.35143 27.3695 4.30112C27.3699 3.9209 27.5212 3.55638 27.79 3.28752C28.0589 3.01866 28.4234 2.86742 28.8036 2.86697ZM28.3744 6.4307C28.9487 6.87891 29.6558 7.12339 30.3843 7.12564V7.8916C30.3843 8.15812 30.2784 8.41373 30.0899 8.60219C29.9015 8.79065 29.6459 8.89652 29.3794 8.89652C29.1128 8.89652 28.8572 8.79065 28.6688 8.60219C28.4803 8.41373 28.3744 8.15812 28.3744 7.8916V6.4307ZM20.9827 12.2489C21.2577 11.8355 21.6306 11.4966 22.0683 11.2624C22.506 11.0282 22.9948 10.9059 23.4912 10.9064H26.3646V11.4088C26.3646 12.0751 26.6293 12.7142 27.1004 13.1853C27.5716 13.6565 28.2106 13.9212 28.8769 13.9212C29.5432 13.9212 30.1822 13.6565 30.6534 13.1853C31.1245 12.7142 31.3892 12.0751 31.3892 11.4088V10.9064H35.4089C36.2082 10.9073 36.9745 11.2252 37.5397 11.7904C38.1049 12.3556 38.4228 13.1219 38.4237 13.9212V17.9409H35.4089V16.8618L36.3534 14.2646L34.4645 13.5777L30.6853 23.9704H25.3597V18.9458C25.3597 18.6793 25.2538 18.4237 25.0653 18.2352C24.8769 18.0467 24.6213 17.9409 24.3547 17.9409H22.8827L25.1909 14.4786L23.5186 13.3637L21.6514 16.1645L19.4653 14.525L20.9827 12.2489ZM21.5428 19.9507H23.3498V21.9606H21.34V20.2549L21.5428 19.9507ZM16.3153 20.1629C16.3148 19.5676 16.491 18.9856 16.8217 18.4905L18.3487 16.1999L20.5348 17.8395L19.4989 19.3933C19.3888 19.5584 19.3301 19.7523 19.3301 19.9507V27.9901C19.3301 28.1461 19.3664 28.3 19.4362 28.4396L20.2164 30H19.3301C19.0636 30 18.808 30.1058 18.6195 30.2943C18.4311 30.4828 18.3252 30.7384 18.3252 31.0049V32.0098H17.3202C17.0538 32.0095 16.7984 31.9035 16.61 31.7151C16.4216 31.5268 16.3156 31.2713 16.3153 31.0049V20.1629ZM14.3132 19.9507C14.3103 20.0214 14.3055 20.0919 14.3055 20.1629V21.9606H12.2956V19.9507H14.3132ZM16.8178 53.1133V40.0492H18.8276V53.1133H16.8178ZM15.5925 57.133L16.095 55.1231H19.5504L20.0529 57.133H15.5925ZM19.7518 38.0394H15.8936L12.2956 31.7429V23.9704H14.3055V31.0049C14.3064 31.8042 14.6243 32.5705 15.1895 33.1357C15.7547 33.7008 16.521 34.0188 17.3202 34.0197H19.3301C19.5966 34.0197 19.8522 33.9138 20.0407 33.7253C20.2291 33.5369 20.335 33.2813 20.335 33.0147V32.0098H20.5269C20.8368 32.0098 21.1416 31.9306 21.4122 31.7797C21.6829 31.6288 21.9105 31.4112 22.0734 31.1476C22.2363 30.884 22.3291 30.5832 22.343 30.2736C22.357 29.964 22.2915 29.656 22.153 29.3789L21.34 27.7529V23.9704H23.3498V31.7429L19.7518 38.0394ZM25.2272 32.5084C25.314 32.3565 25.3597 32.1847 25.3597 32.0098V25.9803H30.6649L32.4328 31.2841L30.1726 28.3781L28.5861 29.612L35.8935 39.0073L31.4127 42.7413L23.9901 34.6733L25.2272 32.5084ZM28.8916 57.133L24.6623 51.2121L25.5154 50.359L29.3794 52.6774V57.133L28.8916 57.133ZM29.8271 50.6021L26.568 48.6465L28.575 42.6253L31.4458 45.7458L29.8271 50.6021ZM37.9212 52.7843V53.1133H35.9114V50.5996L37.9212 52.7843ZM34.6861 57.133L35.1886 55.1231H38.644L39.1465 57.133H34.6861ZM40.1871 52.2787L39.0549 51.0481L41.7158 48.8307L42.3771 52.7984C42.0021 52.9422 41.5925 52.9696 41.2018 52.8768C40.8111 52.7841 40.4574 52.5757 40.1871 52.2787H40.1871ZM47.4177 48.556L46.9281 48.9844L45.9368 47.4975L46.7568 47.2925C46.8797 47.2621 47.0084 47.2639 47.1304 47.2977C47.2524 47.3315 47.3637 47.3962 47.4534 47.4855C47.5244 47.5565 47.5801 47.6413 47.617 47.7347C47.6538 47.8281 47.6711 47.9281 47.6678 48.0285C47.6645 48.1288 47.6405 48.2275 47.5975 48.3182C47.5545 48.4089 47.4933 48.4899 47.4177 48.556Z" fill="black"/>
</svg>
