<svg width="60" height="60" viewBox="0 0 60 60" fill="none" xmlns="http://www.w3.org/2000/svg">
<path d="M16.2883 10.8034H23.6021V12.6318H16.2883V10.8034Z" fill="#3A9CC9"/>
<rect x="8.44897" y="15.5023" width="28.9959" height="5.48571" fill="#FEB104"/>
<path d="M25.4308 10.8034H29.0877V12.6318H25.4308V10.8034Z" fill="#3A9CC9"/>
<path d="M16.2883 7.14645H29.0874V8.9749H16.2883V7.14645Z" fill="#3A9CC9"/>
<path d="M56.0007 53.2457L46.4693 43.7143L43.7142 46.4693L53.2456 56.0007C54.0066 56.7617 55.2402 56.7617 56.0007 56.0007C56.7616 55.2402 56.7616 54.0066 56.0007 53.2457Z" fill="#FEB104"/>
<path d="M51 38.1428C51 45.717 44.8598 51.8571 37.2857 51.8571C29.7116 51.8571 23.5714 45.717 23.5714 38.1428C23.5714 30.5687 29.7116 24.4286 37.2857 24.4286C44.8598 24.4286 51 30.5687 51 38.1428Z" fill="#FEB104"/>
<path d="M47.5714 38.3571C47.5714 43.9195 43.0624 48.4286 37.5 48.4286C31.9377 48.4286 27.4286 43.9195 27.4286 38.3571C27.4286 32.7948 31.9377 28.2857 37.5 28.2857C43.0624 28.2857 47.5714 32.7948 47.5714 38.3571Z" fill="#F6F6F6"/>
<path fill-rule="evenodd" clip-rule="evenodd" d="M37.5 46.4665C41.9787 46.4665 45.6093 42.8358 45.6093 38.3571C45.6093 33.8784 41.9787 30.2478 37.5 30.2478C33.0213 30.2478 29.3907 33.8784 29.3907 38.3571C29.3907 42.8358 33.0213 46.4665 37.5 46.4665ZM37.5 48.4286C43.0624 48.4286 47.5714 43.9195 47.5714 38.3571C47.5714 32.7948 43.0624 28.2857 37.5 28.2857C31.9377 28.2857 27.4286 32.7948 27.4286 38.3571C27.4286 43.9195 31.9377 48.4286 37.5 48.4286Z" fill="black"/>
<path d="M3.48561 53.7714H6.21753V56.5143C6.21753 57.0192 6.62527 57.4286 7.12817 57.4286H45.3751C45.878 57.4286 46.2857 57.0192 46.2857 56.5143V52.8572H44.4644V55.6H8.03881V53.7714H28.9835V51.9429H4.39625V12.6286H11.6814C12.1843 12.6286 12.592 12.2192 12.592 11.7143V4.40001H40.8219V21.7714H42.6431V8.05716H44.4644V23.6H46.2857V7.14287C46.2857 6.63796 45.878 6.22858 45.3751 6.22858H42.6431V3.48573C42.6431 2.98082 42.2354 2.57144 41.7325 2.57144H11.6814C11.6631 2.57144 11.6467 2.58082 11.6285 2.5826C11.5458 2.58662 11.4639 2.60314 11.3857 2.63082C11.3586 2.63885 11.3323 2.64867 11.3061 2.65939C11.2065 2.70314 11.1153 2.76519 11.0375 2.84198L2.84176 11.0705C2.76572 11.1482 2.70392 11.2393 2.6599 11.3389C2.647 11.367 2.63989 11.3955 2.62966 11.4246C2.60343 11.5005 2.58786 11.5795 2.58342 11.6594C2.58342 11.6795 2.57141 11.6969 2.57141 11.717V52.8572C2.57141 53.1005 2.6679 53.3335 2.83953 53.5049C3.01117 53.6768 3.24372 53.7723 3.48561 53.7714ZM10.7707 5.69287V10.8H5.68395L10.7707 5.69287Z" fill="black"/>
<path d="M30.8824 22.7933V21.8797H38.1429V17.3121C38.1411 15.894 37.0643 14.7115 35.6608 14.5862C35.5811 14.5759 35.5009 14.571 35.4202 14.5715H10.0085C8.50486 14.5715 7.28577 15.7986 7.28577 17.3121V46.5451C7.28577 48.0591 8.50486 49.2857 10.0085 49.2857H23.6219V47.4587H14.5463V44.7181H21.8068V42.891H14.5463V40.1504H20.8992V38.3233H14.5463V35.5827H21.0809V33.7557H14.5463V31.0151H22.7143V29.188H14.5463V26.4474H26.3446V24.6203H14.5463V21.8797H29.0673V22.7933H30.8824ZM35.4947 16.4052C35.9653 16.4414 36.3287 16.837 36.3278 17.3121V20.0527H30.8824V16.3923H35.3821C35.4193 16.399 35.457 16.403 35.4947 16.4052ZM10.0085 16.3985H12.7311V20.0527H9.10089V17.3121C9.10089 16.8076 9.50726 16.3985 10.0085 16.3985ZM12.7311 47.4587H10.0085C9.50726 47.4587 9.10089 47.0496 9.10089 46.5451V44.7181H12.7311V47.4587ZM12.7311 42.891H9.10089V40.1504H12.7311V42.891ZM12.7311 38.3233H9.10089V35.5827H12.7311V38.3233ZM12.7311 33.7557H9.10089V31.0151H12.7311V33.7557ZM12.7311 29.188H9.10089V26.4474H12.7311V29.188ZM12.7311 24.6203H9.10089V21.8797H12.7311V24.6203ZM14.5463 20.0527V16.3985L29.0673 16.3941V20.0527H14.5463Z" fill="black"/>
<path d="M16.2858 10.7143H23.5715V12.4286H16.2858V10.7143Z" fill="black"/>
<path d="M25.2858 10.7143H29.1429V12.4286H25.2858V10.7143Z" fill="black"/>
<path d="M16.2858 7.28571H29.1429V8.99999H16.2858V7.28571Z" fill="black"/>
<path d="M49.8779 45.842L49.7614 45.9587C53.7451 39.5463 52.2078 31.1518 46.2112 26.5723C40.2146 21.9924 31.7245 22.7293 26.6037 28.2735C21.4829 33.8177 21.41 42.352 26.4357 47.9826C31.4614 53.6137 39.9377 54.4956 46.0112 50.019L52.5772 56.5948C53.6873 57.7065 55.4864 57.7065 56.596 56.5948C57.706 55.4836 57.706 53.6818 56.596 52.5705L49.8779 45.842ZM24.6521 38.2805C24.6521 31.2306 30.3589 25.5154 37.3984 25.5154C44.4379 25.5154 50.1446 31.2306 50.1446 38.2805C50.1446 45.3305 44.4379 51.0457 37.3984 51.0457C30.362 51.0381 24.6597 45.3274 24.6521 38.2805ZM54.5866 55.6047C54.3159 55.6055 54.0562 55.4978 53.8646 55.3059L47.4133 48.8454C47.909 48.3762 48.3709 47.8726 48.7963 47.3384L55.3077 53.8594C55.5997 54.1519 55.6873 54.5914 55.5295 54.9733C55.3717 55.3553 54.9996 55.6047 54.5866 55.6047Z" fill="black"/>
</svg>
