<svg width="20" height="20" viewBox="0 0 20 20" fill="none" xmlns="http://www.w3.org/2000/svg">
<path d="M10.2437 13.7C10.1662 13.7337 10.0825 13.75 10 13.75C9.9175 13.75 9.83375 13.7337 9.75625 13.7L0 9.56873V18.75C0 19.44 0.56 20 1.25 20H18.75C19.44 20 20 19.44 20 18.75V9.56873L10.2437 13.7Z" fill="black"/>
<path d="M19.7125 6.0625L17.5 4.6625V1.25C17.5 0.5625 16.9375 0 16.25 0H3.75C3.0625 0 2.5 0.5625 2.5 1.25V4.6625L0.2875 6.0625C0.1125 6.175 0 6.375 0 6.5875V8.2125L3.75 9.8V1.25H16.25V9.8L20 8.2125V6.5875C20 6.375 19.8875 6.175 19.7125 6.0625Z" fill="black"/>
<path d="M14.375 2.5H5.625C5.28 2.5 5 2.78 5 3.125C5 3.47 5.28 3.75 5.625 3.75H14.375C14.72 3.75 15 3.47 15 3.125C15 2.78 14.72 2.5 14.375 2.5Z" fill="black"/>
<path d="M14.375 5H5.625C5.28 5 5 5.28 5 5.625C5 5.97 5.28 6.25 5.625 6.25H14.375C14.72 6.25 15 5.97 15 5.625C15 5.28 14.72 5 14.375 5Z" fill="black"/>
<path d="M10.625 7.5H5.625C5.28 7.5 5 7.78 5 8.125C5 8.47 5.28 8.75 5.625 8.75H10.625C10.97 8.75 11.25 8.47 11.25 8.125C11.25 7.78 10.97 7.5 10.625 7.5Z" fill="black"/>
</svg>
