<svg width="23" height="22" viewBox="0 0 23 22" fill="none" xmlns="http://www.w3.org/2000/svg">
<path d="M7.97555 4.24553C7.97555 4.10839 7.9946 3.81222 8.03269 3.3589C8.07364 2.90464 8.24507 2.42942 8.55267 1.93039C8.85742 1.43327 9.35169 0.986624 10.0393 0.591403C10.724 0.198087 11.7135 0 13.0049 0H16.6428V3.96459H13.9791C13.7153 3.96459 13.4696 4.06363 13.2477 4.25886C13.0277 4.45409 12.9144 4.6398 12.9144 4.81217V7.27873H16.6418C16.6028 7.76157 16.5599 8.23107 16.5104 8.68439L16.3628 9.88243C16.3038 10.2872 16.2438 10.6624 16.1847 11.0081H12.8877V22H7.97555V11.0071H5.57947V7.27873H7.97555V4.24553Z" fill="black"/>
</svg>
