<svg width="60" height="60" viewBox="0 0 60 60" fill="none" xmlns="http://www.w3.org/2000/svg">
<path d="M51.5625 41.25H35.625V39.375H50.625V29.0625H52.5V40.3125C52.5 40.5611 52.4012 40.7996 52.2254 40.9754C52.0496 41.1512 51.8111 41.25 51.5625 41.25Z" fill="#E5E5E5"/>
<path d="M51.5625 30C53.1158 30 54.375 28.7408 54.375 27.1875C54.375 25.6342 53.1158 24.375 51.5625 24.375C50.0092 24.375 48.75 25.6342 48.75 27.1875C48.75 28.7408 50.0092 30 51.5625 30Z" fill="#FEB104"/>
<path d="M44.0625 47.8125H52.5V49.6875H44.0625V47.8125Z" fill="#E5E5E5"/>
<path d="M54.375 51.5625C55.9283 51.5625 57.1875 50.3033 57.1875 48.75C57.1875 47.1967 55.9283 45.9375 54.375 45.9375C52.8217 45.9375 51.5625 47.1967 51.5625 48.75C51.5625 50.3033 52.8217 51.5625 54.375 51.5625Z" fill="#FEB104"/>
<path d="M22.1024 13.125C23.1201 13.125 24.1279 12.9246 25.0682 12.5351C26.0084 12.1456 26.8628 11.5748 27.5824 10.8551C27.9433 10.4942 28.2676 10.0986 28.5506 9.67396L30 7.50001C30.546 9.13805 31.5936 10.5628 32.9944 11.5723C34.3951 12.5819 36.078 13.1251 37.8047 13.125C38.5999 13.125 39.3874 12.9684 40.122 12.6641C40.8567 12.3597 41.5243 11.9137 42.0866 11.3514L43.125 10.3125H43.1166C42.1877 10.3097 41.2804 10.0317 40.5094 9.51368C39.7384 8.99563 39.1382 8.26075 38.7845 7.40181C38.2135 6.05505 37.2631 4.90341 36.0492 4.08716C35.1612 3.50012 34.1331 3.15955 33.0702 3.10032C32.0073 3.04108 30.9478 3.26529 30 3.75001C29.0522 3.26529 27.9927 3.04108 26.9298 3.10032C25.8669 3.15955 24.8388 3.50012 23.9508 4.08716C22.9266 4.77401 22.0874 5.7026 21.5073 6.79086C20.9272 7.87911 20.6242 9.0935 20.625 10.3267V13.125H22.1024Z" fill="#F7B023"/>
<path d="M24.375 19.6875H35.625C35.7016 19.6875 35.778 19.6781 35.8523 19.6595L39.375 18.7788V16.8461L35.5097 17.8125H24.4903L20.625 16.8461V18.7788L24.1477 19.6595C24.222 19.6781 24.2984 19.6875 24.375 19.6875Z" fill="#E5E5E5"/>
<path d="M25.3125 14.0625H27.1875V15.9375H25.3125V14.0625Z" fill="#E88080"/>
<path d="M22.7746 42.8504L9.64957 29.7254C9.56252 29.6384 9.49346 29.535 9.44635 29.4213C9.39924 29.3075 9.375 29.1856 9.375 29.0625V22.5H11.25V28.6743L24.1004 41.5246L22.7746 42.8504Z" fill="#E5E5E5"/>
<path d="M32.8125 14.0625H34.6875V15.9375H32.8125V14.0625Z" fill="#E88080"/>
<path d="M41.25 44.0625H45.9375V52.5H41.25V44.0625Z" fill="#FEB104"/>
<path d="M12.7076 14.8425L11.6675 13.2825L14.0626 11.6858V6.5625H15.9376V12.1875C15.9376 12.3418 15.8995 12.4938 15.8266 12.6298C15.7538 12.7659 15.6485 12.8819 15.5201 12.9675L12.7076 14.8425Z" fill="#E88080"/>
<path d="M12.1875 9.43242C12.1875 9.16855 12.0827 8.91549 11.8961 8.72891C11.7095 8.54232 11.4564 8.4375 11.1926 8.4375C9.96461 8.4375 8.78693 8.92531 7.91862 9.79362C7.05031 10.6619 6.5625 11.8396 6.5625 13.0676V19.9527C6.56251 20.1223 6.60587 20.2891 6.68846 20.4372C6.77106 20.5853 6.89014 20.7098 7.0344 20.799C7.17866 20.8881 7.34332 20.9389 7.51274 20.9465C7.68215 20.9542 7.8507 20.9183 8.00238 20.8425L9.97816 19.8546C10.642 19.5227 11.2004 19.0124 11.5906 18.381C11.9808 17.7496 12.1875 17.022 12.1875 16.2798V9.43242Z" fill="#FEB104"/>
<path d="M46.875 8.4375H48.75V10.3125H46.875V8.4375Z" fill="#066991"/>
<path d="M50.625 8.4375H57.1875V10.3125H50.625V8.4375Z" fill="#066991"/>
<path d="M46.875 12.1875H56.25V14.0625H46.875V12.1875Z" fill="#066991"/>
<path d="M46.875 15.9375H53.4375V17.8125H46.875V15.9375Z" fill="#066991"/>
<path d="M55.3125 15.9375H57.1875V17.8125H55.3125V15.9375Z" fill="#066991"/>
<path d="M23.4375 19.4819L20.625 18.7788V16.8461L23.4375 17.5493V19.4819Z" fill="#B7B7B7"/>
<path d="M30.5826 37.9688C30.9556 37.5958 31.4614 37.3863 31.9889 37.3863C32.5163 37.3863 33.0222 37.5958 33.3951 37.9688L33.8639 38.4375L34.3326 37.9688C34.7056 37.5958 35.2114 37.3863 35.7389 37.3863C36.2663 37.3863 36.7722 37.5958 37.1451 37.9688C37.5181 38.3417 37.7276 38.8476 37.7276 39.375C37.7276 39.9025 37.5181 40.4083 37.1451 40.7813L33.8639 44.0625L30.5826 40.7813C30.398 40.5966 30.2515 40.3774 30.1515 40.1361C30.0516 39.8948 30.0001 39.6362 30.0001 39.375C30.0001 39.1138 30.0516 38.8552 30.1515 38.6139C30.2515 38.3727 30.398 38.1534 30.5826 37.9688Z" fill="#FEB104"/>
<path d="M20.625 52.5H28.125V54.375H20.625V52.5Z" fill="#E5E5E5"/>
<path d="M17.8125 56.25V50.6752C17.8125 50.1761 17.7142 49.6819 17.5233 49.2209C17.3323 48.7598 17.0524 48.3409 16.6995 47.988C16.3466 47.6351 15.9277 47.3552 15.4666 47.1642C15.0056 46.9733 14.5114 46.875 14.0123 46.875H11.4973C11.3417 46.875 11.1876 46.8444 11.0439 46.7848C10.9001 46.7253 10.7695 46.638 10.6595 46.528C10.5495 46.418 10.4622 46.2874 10.4027 46.1436C10.3431 45.9999 10.3125 45.8458 10.3125 45.6902V45H6.5625V48.75C6.5625 49.4959 6.85882 50.2113 7.38626 50.7387C7.91371 51.2662 8.62908 51.5625 9.375 51.5625C10.1209 51.5625 10.8363 51.8588 11.3637 52.3863C11.8912 52.9137 12.1875 53.6291 12.1875 54.375V56.25H17.8125Z" fill="#FEB104"/>
<path d="M54.375 44.8393C53.5439 44.8404 52.7366 45.117 52.0795 45.6259C51.4224 46.1349 50.9526 46.8473 50.7437 47.6518H46.875V41.0893H51.5625C51.8111 41.0893 52.0496 40.9905 52.2254 40.8147C52.4012 40.6389 52.5 40.4004 52.5 40.1518V30.6581C53.3837 30.4299 54.1539 29.8872 54.6662 29.1318C55.1784 28.3764 55.3976 27.4601 55.2826 26.5546C55.1676 25.6492 54.7263 24.8168 54.0415 24.2134C53.3566 23.61 52.4752 23.2772 51.5625 23.2772C50.6498 23.2772 49.7684 23.61 49.0835 24.2134C48.3987 24.8168 47.9574 25.6492 47.8424 26.5546C47.7274 27.4601 47.9466 28.3764 48.4588 29.1318C48.9711 29.8872 49.7413 30.4299 50.625 30.6581V39.2143H46.875V35.3275C46.8729 33.624 46.1953 31.9908 44.9906 30.7861C43.786 29.5815 42.1528 28.9039 40.4493 28.9018H33.75V27.7488C35.611 27.3196 37.2722 26.2737 38.4636 24.781C39.655 23.2884 40.3066 21.4366 40.3125 19.5268C41.1507 19.527 41.9648 19.2463 42.6248 18.7295C43.2847 18.2128 43.7525 17.4897 43.9533 16.6759C44.1541 15.8621 44.0764 15.0045 43.7327 14.2401C43.3889 13.4756 42.7988 12.8484 42.0567 12.4586C42.3004 12.2721 42.5316 12.07 42.7491 11.8536L43.7879 10.8147C43.919 10.6836 44.0083 10.5166 44.0445 10.3347C44.0807 10.1528 44.0621 9.96433 43.9912 9.79302C43.9202 9.62171 43.8 9.47529 43.6459 9.37228C43.4917 9.26926 43.3104 9.21428 43.125 9.21429H43.0991C42.3575 9.20781 41.6343 8.98242 41.0203 8.56641C40.4063 8.1504 39.9289 7.5623 39.6479 6.87593C39.0075 5.36055 37.9386 4.06507 36.5725 3.14843C35.6125 2.51127 34.5088 2.12348 33.3612 2.02013C32.2136 1.91678 31.0584 2.10113 30 2.55652C28.9416 2.10117 27.7864 1.91685 26.6388 2.02022C25.4912 2.12359 24.3875 2.51139 23.4275 3.14855C22.2759 3.92126 21.3323 4.96568 20.68 6.18956C20.0277 7.41344 19.6868 8.77912 19.6875 10.166V12.0268C18.6929 12.0268 17.7391 12.4219 17.0359 13.1251C16.3326 13.8284 15.9375 14.7822 15.9375 15.7768C15.9375 16.7714 16.3326 17.7252 17.0359 18.4284C17.7391 19.1317 18.6929 19.5268 19.6875 19.5268C19.6934 21.4366 20.345 23.2884 21.5364 24.781C22.7278 26.2737 24.389 27.3196 26.25 27.7488V28.9018H19.5507C18.529 28.9021 17.522 29.1464 16.6136 29.6141C15.7052 30.0819 14.9216 30.7597 14.3278 31.5912L11.25 28.5135V24.2143H17.8125C18.0611 24.2143 18.2996 24.1155 18.4754 23.9397C18.6512 23.7639 18.75 23.5254 18.75 23.2768V21.4018H16.875V22.3393H3.75V5.46429H16.875V10.1518H18.75V4.52679C18.75 4.27815 18.6512 4.03969 18.4754 3.86388C18.2996 3.68806 18.0611 3.58929 17.8125 3.58929H2.8125C2.56386 3.58929 2.3254 3.68806 2.14959 3.86388C1.97377 4.03969 1.875 4.27815 1.875 4.52679V23.2768C1.875 23.5254 1.97377 23.7639 2.14959 23.9397C2.3254 24.1155 2.56386 24.2143 2.8125 24.2143H9.375V28.9018C9.375 29.0249 9.39924 29.1468 9.44635 29.2606C9.49346 29.3743 9.56252 29.4777 9.64957 29.5647L13.437 33.3522C13.2301 33.9902 13.1248 34.6568 13.125 35.3275V42.9643H4.70309C3.95329 42.9651 3.23444 43.2634 2.70425 43.7935C2.17406 44.3237 1.87584 45.0426 1.875 45.7924V55.1362C1.87584 55.886 2.17406 56.6049 2.70425 57.135C3.23444 57.6652 3.95329 57.9635 4.70309 57.9643H19.6719C20.4217 57.9635 21.1406 57.6652 21.6707 57.135C22.2009 56.6049 22.4992 55.886 22.5 55.1362V54.2143H28.125V52.3393H22.5V45.7924C22.4992 45.0453 22.2031 44.3287 21.6763 43.799C21.1495 43.2692 20.4346 42.9692 19.6875 42.9643V39.6026L22.7746 42.6897L24.1004 41.3639L15.6779 32.9414C16.0852 32.2801 16.6548 31.7341 17.3327 31.3552C18.0106 30.9763 18.7742 30.7772 19.5507 30.7768H26.3687C26.5763 31.5821 27.0457 32.2955 27.703 32.8049C28.3604 33.3143 29.1684 33.5907 30 33.5907C30.8316 33.5907 31.6396 33.3143 32.297 32.8049C32.9543 32.2955 33.4237 31.5821 33.6313 30.7768H40.4493C41.6558 30.7781 42.8125 31.258 43.6656 32.1111C44.5188 32.9643 44.9987 34.121 45 35.3275V39.2143H42.1875V36.4018H40.3125V39.2143H38.6636C38.6639 38.6579 38.5056 38.113 38.2072 37.6435C37.9087 37.1739 37.4826 36.7993 36.9787 36.5634C36.4748 36.3275 35.9141 36.2402 35.3624 36.3118C34.8107 36.3834 34.2908 36.6108 33.8638 36.9675C33.2854 36.4845 32.5431 36.2432 31.7913 36.2938C31.0395 36.3445 30.3362 36.6832 29.8279 37.2394C29.3196 37.7957 29.0454 38.5265 29.0625 39.2799C29.0796 40.0332 29.3866 40.7509 29.9196 41.2835L33.2009 44.5647C33.2879 44.6518 33.3913 44.7208 33.505 44.768C33.6188 44.8151 33.7407 44.8393 33.8638 44.8393C33.9869 44.8393 34.1088 44.8151 34.2226 44.768C34.3363 44.7208 34.4397 44.6518 34.5267 44.5647L37.808 41.2835C37.8705 41.221 37.929 41.1559 37.9847 41.0893H40.3125V57.0268H42.1875V53.2768H45V57.9643H46.875V49.5268H50.7437C50.9191 50.2059 51.2813 50.8222 51.7894 51.3057C52.2974 51.7892 52.9309 52.1206 53.6178 52.2621C54.3047 52.4037 55.0176 52.3497 55.6754 52.1065C56.3332 51.8632 56.9096 51.4403 57.3392 50.8858C57.7687 50.3314 58.0341 49.6676 58.1053 48.9698C58.1764 48.2721 58.0505 47.5684 57.7418 46.9386C57.4331 46.3089 56.9539 45.7783 56.3588 45.4072C55.7636 45.0361 55.0764 44.8394 54.375 44.8393ZM49.6875 27.0268C49.6875 26.656 49.7975 26.2934 50.0035 25.9851C50.2095 25.6768 50.5024 25.4364 50.845 25.2945C51.1876 25.1526 51.5646 25.1155 51.9283 25.1878C52.292 25.2602 52.6261 25.4387 52.8883 25.701C53.1506 25.9632 53.3291 26.2973 53.4015 26.661C53.4738 27.0247 53.4367 27.4017 53.2948 27.7443C53.1529 28.0869 52.9125 28.3798 52.6042 28.5858C52.2959 28.7918 51.9333 28.9018 51.5625 28.9018C51.0654 28.9012 50.5888 28.7035 50.2373 28.352C49.8858 28.0005 49.6881 27.5239 49.6875 27.0268ZM4.70309 56.0893C4.4504 56.089 4.20814 55.9885 4.02946 55.8098C3.85078 55.6312 3.75028 55.3889 3.75 55.1362V45.7924C3.75028 45.5397 3.85078 45.2974 4.02946 45.1188C4.20814 44.9401 4.4504 44.8396 4.70309 44.8393H5.625V48.5893C5.62615 49.5835 6.0216 50.5367 6.72462 51.2397C7.42763 51.9427 8.38079 52.3381 9.375 52.3393C9.8721 52.3399 10.3487 52.5376 10.7002 52.8891C11.0517 53.2406 11.2494 53.7172 11.25 54.2143V56.0893H4.70309ZM13.125 56.0893V54.2143C13.1239 53.2201 12.7284 52.2669 12.0254 51.5639C11.3224 50.8609 10.3692 50.4654 9.375 50.4643C8.8779 50.4637 8.40133 50.266 8.04983 49.9145C7.69832 49.563 7.50059 49.0864 7.5 48.5893V44.8393H9.375V45.5295C9.37562 46.0922 9.59941 46.6316 9.99728 47.0295C10.3952 47.4274 10.9346 47.6512 11.4973 47.6518H14.0123C14.7713 47.6526 15.499 47.9545 16.0356 48.4912C16.5723 49.0278 16.8742 49.7555 16.875 50.5145V56.0893H13.125ZM20.625 45.7924V55.1362C20.6247 55.3889 20.5242 55.6312 20.3455 55.8098C20.1669 55.9885 19.9246 56.089 19.6719 56.0893H18.75V50.5145C18.7486 49.2584 18.249 48.0542 17.3608 47.166C16.4726 46.2778 15.2684 45.7782 14.0123 45.7768H11.4973C11.4317 45.7767 11.3688 45.7507 11.3225 45.7043C11.2761 45.6579 11.2501 45.5951 11.25 45.5295V44.8393H19.6719C19.9246 44.8396 20.1669 44.9401 20.3455 45.1188C20.5242 45.2974 20.6247 45.5397 20.625 45.7924ZM17.8125 37.7276V42.9643H15V35.3275C15 35.1946 15.0069 35.0634 15.0182 34.9333L17.8125 37.7276ZM25.3125 19.5268H34.6875V25.4497C33.805 25.8717 32.839 26.0903 31.8608 26.0893H28.1392C27.161 26.0903 26.195 25.8717 25.3125 25.4497V19.5268ZM36.5625 24.1048V19.3212L38.4375 18.8525V19.5126C38.4383 21.2299 37.765 22.8789 36.5625 24.1048ZM40.3125 17.6518V13.9018C40.8098 13.9018 41.2867 14.0993 41.6383 14.451C41.99 14.8026 42.1875 15.2795 42.1875 15.7768C42.1875 16.2741 41.99 16.751 41.6383 17.1026C41.2867 17.4542 40.8098 17.6518 40.3125 17.6518ZM21.5625 10.166C21.5622 9.08665 21.8276 8.02385 22.3354 7.07143C22.8432 6.11902 23.5777 5.30629 24.474 4.70503C25.2238 4.21045 26.0915 3.92402 26.9884 3.8751C27.8853 3.82617 28.779 4.0165 29.5781 4.42659C29.709 4.49253 29.8535 4.52688 30 4.52688C30.1465 4.52688 30.291 4.49253 30.4219 4.42659C31.221 4.01649 32.1147 3.8261 33.0115 3.8749C33.9083 3.9237 34.7761 4.20994 35.526 4.70433C36.5898 5.41787 37.4222 6.42642 37.9211 7.60624C38.2215 8.32586 38.6665 8.97608 39.2286 9.51659C39.7906 10.0571 40.4578 10.4764 41.1886 10.7484C40.2557 11.5753 39.0513 12.0303 37.8047 12.0268C36.2745 12.0283 34.7827 11.5475 33.5413 10.6529C32.2999 9.75817 31.372 8.49504 30.8895 7.04292C30.834 6.87641 30.7328 6.72881 30.5976 6.61694C30.4624 6.50506 30.2984 6.4334 30.1245 6.41011C30.0832 6.40462 30.0416 6.40184 30 6.40179C29.8457 6.40183 29.6938 6.43995 29.5578 6.51276C29.4218 6.58558 29.3058 6.69084 29.2202 6.81921L27.7707 8.99316C27.5218 9.36643 27.2366 9.71424 26.9194 10.0316C26.2883 10.6661 25.5376 11.1692 24.7108 11.5117C23.884 11.8541 22.9974 12.0292 22.1025 12.0268H21.5625V10.166ZM22.1025 13.9018C23.2438 13.9049 24.3743 13.6816 25.4287 13.2449C26.4831 12.8081 27.4404 12.1666 28.2452 11.3574C28.6497 10.9527 29.0133 10.5092 29.3307 10.0332L29.8387 9.27148C30.6385 10.6787 31.7971 11.8487 33.1965 12.6622C34.596 13.4756 36.1861 13.9033 37.8047 13.9018C38.0173 13.9018 38.2282 13.8925 38.4375 13.8738V16.9198L35.5097 17.6518H24.4903L21.5625 16.9198V13.9018H22.1025ZM17.8125 15.7768C17.8131 15.2797 18.0108 14.8031 18.3623 14.4516C18.7138 14.1001 19.1904 13.9024 19.6875 13.9018V17.6518C19.1904 17.6512 18.7138 17.4535 18.3623 17.102C18.0108 16.7505 17.8131 16.2739 17.8125 15.7768ZM21.5625 19.5126V18.8525L23.4375 19.3212V24.1048C22.235 22.8789 21.5617 21.2299 21.5625 19.5126ZM30 31.7143C29.5029 31.7137 29.0263 31.516 28.6748 31.1645C28.3233 30.813 28.1256 30.3364 28.125 29.8393V27.9643H28.1392H31.8608H31.875V29.8393C31.8744 30.3364 31.6767 30.813 31.3252 31.1645C30.9737 31.516 30.4971 31.7137 30 31.7143ZM36.4821 39.9576L33.8638 42.576L31.2454 39.9576C31.0482 39.7605 30.9375 39.4931 30.9375 39.2143C30.9375 38.9355 31.0482 38.6681 31.2454 38.471C31.4427 38.2741 31.71 38.1636 31.9887 38.1636C32.2674 38.1636 32.5347 38.2741 32.732 38.471L33.2007 38.9397C33.2878 39.0268 33.3911 39.0958 33.5049 39.143C33.6186 39.1901 33.7406 39.2143 33.8637 39.2143C33.9868 39.2143 34.1087 39.1901 34.2224 39.143C34.3362 39.0958 34.4395 39.0268 34.5266 38.9397L34.9954 38.471C35.093 38.3734 35.2089 38.2959 35.3364 38.2431C35.4639 38.1903 35.6006 38.1631 35.7387 38.1631C35.8767 38.1631 36.0134 38.1903 36.141 38.2431C36.2685 38.2959 36.3844 38.3734 36.482 38.471C36.5796 38.5686 36.657 38.6845 36.7099 38.812C36.7627 38.9395 36.7899 39.0762 36.7899 39.2143C36.7899 39.3523 36.7627 39.489 36.7099 39.6166C36.657 39.7441 36.5796 39.86 36.482 39.9576H36.4821ZM45 41.0893V42.9643H42.1875V41.0893H45ZM45 51.4018H42.1875V44.8393H45V47.6518H44.0625V49.5268H45V51.4018ZM54.375 50.4643C54.0042 50.4643 53.6416 50.3543 53.3333 50.1483C53.025 49.9423 52.7846 49.6494 52.6427 49.3068C52.5008 48.9642 52.4637 48.5872 52.536 48.2235C52.6084 47.8598 52.7869 47.5257 53.0492 47.2635C53.3114 47.0012 53.6455 46.8227 54.0092 46.7503C54.3729 46.678 54.7499 46.7151 55.0925 46.857C55.4351 46.9989 55.728 47.2393 55.934 47.5476C56.14 47.8559 56.25 48.2185 56.25 48.5893C56.2494 49.0864 56.0517 49.563 55.7002 49.9145C55.3487 50.266 54.8721 50.4637 54.375 50.4643Z" fill="black"/>
<path d="M25.3125 14.0625H27.1875V15.9375H25.3125V14.0625Z" fill="black"/>
<path d="M32.8125 14.0625H34.6875V15.9375H32.8125V14.0625Z" fill="black"/>
<path d="M15.9374 12.1875V6.5625H14.0624V11.6858L11.6675 13.2825L12.7075 14.8425L15.52 12.9675C15.6484 12.8819 15.7537 12.7659 15.8265 12.6298C15.8993 12.4938 15.9374 12.3418 15.9374 12.1875Z" fill="black"/>
<path d="M13.125 10.3125V9.4323C13.1244 8.91999 12.9206 8.42882 12.5584 8.06657C12.1961 7.70432 11.7049 7.50056 11.1926 7.5C9.71648 7.50164 8.30129 8.08875 7.25753 9.13252C6.21376 10.1763 5.62665 11.5915 5.62501 13.0676V19.9527C5.62422 20.2824 5.70793 20.6068 5.86814 20.8949C6.02835 21.1831 6.25972 21.4254 6.54017 21.5987C6.82063 21.772 7.14082 21.8706 7.4702 21.885C7.79957 21.8995 8.12715 21.8292 8.42168 21.6811L10.3975 20.6932C11.219 20.2859 11.91 19.6565 12.3921 18.8764C12.8742 18.0963 13.1281 17.1968 13.125 16.2798V15.9375H11.25V16.2798C11.2519 16.8484 11.0945 17.4061 10.7956 17.8898C10.4967 18.3734 10.0682 18.7636 9.55876 19.0161L7.58321 20.0039C7.57445 20.0083 7.56472 20.0104 7.55493 20.01C7.54514 20.0095 7.53562 20.0066 7.52728 20.0015C7.51894 19.9963 7.51205 19.9891 7.50728 19.9806C7.50251 19.972 7.5 19.9624 7.50001 19.9526V13.0676C7.50109 12.0886 7.89048 11.15 8.58274 10.4577C9.27499 9.76547 10.2136 9.37609 11.1926 9.375C11.2078 9.37503 11.2224 9.38107 11.2331 9.39181C11.2439 9.40255 11.2499 9.4171 11.25 9.4323V10.3125H13.125Z" fill="black"/>
<path d="M46.875 8.4375H48.75V10.3125H46.875V8.4375Z" fill="black"/>
<path d="M50.625 8.4375H57.1875V10.3125H50.625V8.4375Z" fill="black"/>
<path d="M46.875 12.1875H56.25V14.0625H46.875V12.1875Z" fill="black"/>
<path d="M46.875 15.9375H53.4375V17.8125H46.875V15.9375Z" fill="black"/>
<path d="M55.3125 15.9375H57.1875V17.8125H55.3125V15.9375Z" fill="black"/>
</svg>
