<svg width="22" height="22" viewBox="0 0 22 22" fill="none" xmlns="http://www.w3.org/2000/svg">
<path d="M15.9286 0H6.07104C2.72347 0 0 2.7236 0 6.07117V15.9287C0 19.2764 2.72347 21.9999 6.07104 21.9999H15.9286C19.2764 21.9999 21.9999 19.2763 21.9999 15.9287V6.07117C22 2.7236 19.2764 0 15.9286 0ZM20.0481 15.9287C20.0481 18.2001 18.2001 20.0479 15.9287 20.0479H6.07104C3.79977 20.0481 1.95193 18.2001 1.95193 15.9287V6.07117C1.95193 3.7999 3.79977 1.95193 6.07104 1.95193H15.9286C18.2 1.95193 20.0479 3.7999 20.0479 6.07117V15.9287H20.0481Z" fill="black"/>
<path d="M10.9999 5.33105C7.87404 5.33105 5.33105 7.87403 5.33105 10.9999C5.33105 14.1256 7.87404 16.6684 10.9999 16.6684C14.1257 16.6684 16.6687 14.1256 16.6687 10.9999C16.6687 7.87403 14.1257 5.33105 10.9999 5.33105ZM10.9999 14.7163C8.95046 14.7163 7.28299 13.0491 7.28299 10.9997C7.28299 8.9502 8.95033 7.28286 10.9999 7.28286C13.0494 7.28286 14.7167 8.9502 14.7167 10.9997C14.7167 13.0491 13.0493 14.7163 10.9999 14.7163Z" fill="black"/>
<path d="M16.9064 3.67676C16.5303 3.67676 16.1609 3.82901 15.8953 4.09577C15.6284 4.36124 15.475 4.7308 15.475 5.10818C15.475 5.48438 15.6285 5.85382 15.8953 6.12058C16.1608 6.38604 16.5303 6.5396 16.9064 6.5396C17.2838 6.5396 17.652 6.38604 17.9188 6.12058C18.1856 5.85382 18.3378 5.48425 18.3378 5.10818C18.3378 4.7308 18.1856 4.36124 17.9188 4.09577C17.6533 3.82901 17.2838 3.67676 16.9064 3.67676Z" fill="black"/>
</svg>
