<svg width="60" height="60" viewBox="0 0 60 60" fill="none" xmlns="http://www.w3.org/2000/svg">
<path d="M33.75 17.8125L32.8125 19.6875H27.1875L26.25 17.8125V13.125H33.75V17.8125Z" fill="#FFB401"/>
<path d="M20.625 53.4375L24.375 56.25V57.1875H16.875V54.375L20.625 53.4375Z" fill="#E0EDFF"/>
<path d="M4.6875 54.375L9.375 53.4375L12.1875 56.25V57.1875H4.6875V54.375Z" fill="#E0EDFF"/>
<path d="M16.875 54.375L20.625 53.4375V31.875H9.375L4.6875 54.375L9.375 53.4375L15 37.5L16.875 54.375Z" fill="#FEB104"/>
<path d="M44.0625 38.4375H24.375L17.8125 34.6875V31.875H44.0625V38.4375Z" fill="#FFB401"/>
<path d="M16.875 13.125C17.3723 13.125 17.8492 13.3225 18.2008 13.6742C18.5525 14.0258 18.75 14.5027 18.75 15V15.9375H15V15C15 14.5027 15.1975 14.0258 15.5492 13.6742C15.9008 13.3225 16.3777 13.125 16.875 13.125Z" fill="#FEB104"/>
<path d="M19.6875 16.875H21.5625V15H19.6875C19.6875 14.2541 19.3912 13.5387 18.8637 13.0113C18.3363 12.4838 17.6209 12.1875 16.875 12.1875C16.1291 12.1875 15.4137 12.4838 14.8863 13.0113C14.3588 13.5387 14.0625 14.2541 14.0625 15V18.75H13.3524C12.0494 18.7515 10.8001 19.2698 9.87867 20.1912C8.95726 21.1126 8.43897 22.3619 8.4375 23.665V31.7784L3.76969 54.1838C3.75659 54.2467 3.74999 54.3107 3.75 54.375V57.1875C3.75 57.3106 3.77424 57.4325 3.82136 57.5463C3.86847 57.66 3.93752 57.7634 4.02458 57.8504C4.11164 57.9375 4.21499 58.0065 4.32873 58.0536C4.44247 58.1008 4.56438 58.125 4.6875 58.125H12.1875C12.3106 58.125 12.4325 58.1008 12.5463 58.0536C12.66 58.0065 12.7634 57.9375 12.8504 57.8504C12.9375 57.7634 13.0065 57.66 13.0536 57.5463C13.1008 57.4325 13.125 57.3106 13.125 57.1875V56.25C13.125 56.1269 13.1008 56.005 13.0536 55.8912C13.0065 55.7775 12.9375 55.6741 12.8504 55.5871L10.4557 53.1924L14.5206 41.675L15.9375 54.4269V57.1875C15.9375 57.3106 15.9617 57.4325 16.0089 57.5463C16.056 57.66 16.125 57.7634 16.2121 57.8504C16.2991 57.9375 16.4025 58.0065 16.5162 58.0536C16.63 58.1008 16.7519 58.125 16.875 58.125H24.375C24.4981 58.125 24.62 58.1008 24.7338 58.0536C24.8475 58.0065 24.9509 57.9375 25.0379 57.8504C25.125 57.7634 25.194 57.66 25.2411 57.5463C25.2883 57.4325 25.3125 57.3106 25.3125 57.1875V56.25C25.3125 56.1045 25.2786 55.9609 25.2135 55.8307C25.1484 55.7006 25.0539 55.5873 24.9375 55.5L21.5625 52.9688V37.9101L23.9099 39.2515C24.0515 39.3324 24.2118 39.375 24.375 39.375H31.4867L34.9621 42.8504C35.0491 42.9375 35.1525 43.0065 35.2662 43.0536C35.38 43.1008 35.5019 43.125 35.625 43.125H43.125V47.8125H38.4375C38.2756 47.8125 38.1165 47.8544 37.9756 47.9342C37.8347 48.014 37.7169 48.1289 37.6336 48.2677L35.0942 52.5H29.0625C28.9394 52.5 28.8175 52.5242 28.7037 52.5714C28.59 52.6185 28.4866 52.6875 28.3996 52.7746C28.3125 52.8616 28.2435 52.965 28.1964 53.0787C28.1492 53.1925 28.125 53.3144 28.125 53.4375V57.1875C28.125 57.3106 28.1492 57.4325 28.1964 57.5463C28.2435 57.66 28.3125 57.7634 28.3996 57.8504C28.4866 57.9375 28.59 58.0065 28.7037 58.0536C28.8175 58.1008 28.9394 58.125 29.0625 58.125H55.3125C55.4356 58.125 55.5575 58.1008 55.6713 58.0536C55.785 58.0065 55.8884 57.9375 55.9754 57.8504C56.0625 57.7634 56.1315 57.66 56.1786 57.5463C56.2257 57.4325 56.25 57.3106 56.25 57.1875V35.625C56.25 35.4121 56.1775 35.2056 56.0446 35.0393L52.5 30.6086V9.375C52.5 9.25188 52.4757 9.12997 52.4286 9.01623C52.3815 8.90249 52.3125 8.79914 52.2254 8.71208C52.1384 8.62502 52.035 8.55597 51.9213 8.50886C51.8075 8.46174 51.6856 8.4375 51.5625 8.4375H42.1875V2.8125C42.1875 2.68938 42.1632 2.56747 42.1161 2.45373C42.069 2.33999 42 2.23664 41.9129 2.14958C41.8259 2.06252 41.7225 1.99347 41.6088 1.94636C41.495 1.89924 41.3731 1.875 41.25 1.875H25.3125C25.1894 1.875 25.0675 1.89924 24.9537 1.94636C24.84 1.99347 24.7366 2.06252 24.6496 2.14958C24.5625 2.23664 24.4935 2.33999 24.4464 2.45373C24.3992 2.56747 24.375 2.68938 24.375 2.8125V9.375C24.375 9.3778 24.3754 9.38049 24.3754 9.3833C24.3755 9.39524 24.3767 9.40719 24.3772 9.41915C24.3783 9.44158 24.3795 9.46389 24.3821 9.48586C24.3835 9.49725 24.3855 9.50855 24.3873 9.51992C24.3909 9.54297 24.3951 9.5658 24.4003 9.58826C24.4014 9.59295 24.4018 9.5977 24.403 9.60239L25.3125 13.2405V17.8125C25.3125 17.958 25.3464 18.1016 25.4115 18.2318L26.349 20.1068C26.4268 20.2625 26.5465 20.3935 26.6946 20.485C26.8427 20.5765 27.0134 20.625 27.1875 20.625H29.0625V25.3125H30.9375V20.625H32.8125C32.9866 20.625 33.1573 20.5765 33.3054 20.485C33.4535 20.3935 33.5732 20.2625 33.651 20.1068L34.5885 18.2318C34.6536 18.1016 34.6875 17.958 34.6875 17.8125V13.2405L34.9824 12.061L36.6615 15.4193C36.7393 15.575 36.859 15.706 37.0071 15.7975C37.1552 15.889 37.3259 15.9375 37.5 15.9375H43.125V26.25H41.25C41.0881 26.25 40.929 26.2919 40.7881 26.3717C40.6472 26.4514 40.5294 26.5663 40.4461 26.7051L37.9067 30.9375H36.5625C36.5614 29.9433 36.1659 28.9901 35.4629 28.2871C34.7599 27.5841 33.8067 27.1886 32.8125 27.1875H29.521L24.366 20.5597C23.9293 19.9945 23.3685 19.5373 22.7269 19.2235C22.0853 18.9097 21.3801 18.7477 20.6659 18.75H19.6875V16.875ZM16.875 14.0625C17.1236 14.0628 17.3618 14.1616 17.5376 14.3374C17.7133 14.5132 17.8122 14.7514 17.8125 15H15.9375C15.9378 14.7514 16.0366 14.5132 16.2124 14.3374C16.3882 14.1616 16.6264 14.0628 16.875 14.0625ZM18.0871 28.7879C18.1741 28.875 18.2775 28.944 18.3912 28.9911C18.505 29.0383 18.6269 29.0625 18.75 29.0625H22.5C22.9971 29.0631 23.4737 29.2608 23.8252 29.6123C24.1767 29.9638 24.3744 30.4404 24.375 30.9375H17.4908C17.1213 30.9385 16.7553 30.8662 16.4139 30.7248C16.0726 30.5834 15.7626 30.3757 15.5021 30.1138L14.9195 29.5312L16.875 27.5758L18.0871 28.7879ZM13.6742 30.9375H10.3125V27.5758L13.6742 30.9375ZM10.8616 56.25H5.625V55.1436L9.06689 54.4552L10.8616 56.25ZM22.8125 56.25H17.8125V55.107L20.4195 54.4552L22.8125 56.25ZM19.6875 52.7055L17.6883 53.2053L15.9318 37.3965C15.9083 37.1855 15.814 36.9887 15.6641 36.8383C15.5143 36.6879 15.3179 36.5928 15.107 36.5686C14.896 36.5444 14.6832 36.5925 14.5031 36.705C14.3231 36.8175 14.1866 36.9878 14.1159 37.188L8.66838 52.6228L5.8946 53.1775L10.1373 32.8125H16.875V34.6875C16.875 34.8528 16.9187 35.0151 17.0016 35.1581C17.0846 35.301 17.2039 35.4195 17.3474 35.5015L19.6875 36.8387V52.7055ZM36.0133 41.25L34.1383 39.375H43.125V41.25H36.0133ZM45 15.4687L50.625 11.25V30H45V15.4687ZM38.9683 49.6875H48.2192L49.9067 52.5H37.2808L38.9683 49.6875ZM54.375 56.25H30V54.375H54.375V56.25ZM54.375 52.5H52.0933L49.5539 48.2677C49.4706 48.1289 49.3528 48.014 49.2119 47.9342C49.071 47.8544 48.9119 47.8125 48.75 47.8125H45V31.875H51.1119L54.375 35.9538V52.5ZM26.25 3.75H40.3125V8.4375H26.25V3.75ZM33.018 12.1875H26.982L26.5132 10.3125H33.4868L33.018 12.1875ZM32.8125 17.5912L32.2331 18.75H27.7669L27.1875 17.5912V14.0625H32.8125V17.5912ZM38.0794 14.0625L36.2044 10.3125H48.75L43.75 14.0625H38.0794ZM41.7808 28.125H43.125V30.9375H40.0933L41.7808 28.125ZM43.125 32.8125V37.5H24.624L18.75 34.1434V32.8125H43.125ZM29.0625 29.0625H32.8125C33.3096 29.0631 33.7862 29.2608 34.1377 29.6123C34.4892 29.9638 34.6869 30.4404 34.6875 30.9375H27.6187L25.1266 28.03L26.8156 26.7632L28.3225 28.7006C28.4101 28.8133 28.5223 28.9045 28.6506 28.9672C28.7788 29.0299 28.9197 29.0625 29.0625 29.0625H29.0625ZM20.6659 20.625C21.0944 20.6236 21.5175 20.7208 21.9025 20.9091C22.2875 21.0974 22.624 21.3717 22.886 21.7108L25.6644 25.283L23.9038 26.6034L22.2743 24.7024C22.1497 24.5569 21.9834 24.4532 21.798 24.4051C21.6126 24.357 21.4169 24.3668 21.2373 24.4332C21.0576 24.4997 20.9026 24.6196 20.7932 24.7768C20.6837 24.934 20.625 25.1209 20.625 25.3125V27.1875H19.1383L15.6629 23.7121L14.3371 25.0379L15.5492 26.25L13.5937 28.2055L11.2028 25.8146C10.7777 25.3894 10.4882 24.8477 10.3709 24.258C10.2536 23.6683 10.3138 23.0571 10.5439 22.5016C10.774 21.9462 11.1636 21.4714 11.6635 21.1373C12.1635 20.8033 12.7512 20.625 13.3524 20.625H14.3243L14.7517 21.9071C14.9002 22.3527 15.1852 22.7403 15.5663 23.015C15.9474 23.2897 16.4052 23.4375 16.875 23.4375C17.3448 23.4375 17.8026 23.2897 18.1837 23.015C18.5648 22.7403 18.8498 22.3527 18.9983 21.9071L19.4257 20.625H20.6659ZM16.2794 20.5609C16.6719 20.6464 17.0782 20.6464 17.4707 20.5609L17.2196 21.3142C17.1955 21.3865 17.1492 21.4494 17.0874 21.4939C17.0255 21.5385 16.9512 21.5625 16.875 21.5625C16.7988 21.5625 16.7245 21.5385 16.6626 21.4939C16.6008 21.4494 16.5545 21.3865 16.5304 21.3142L16.2794 20.5609ZM16.875 18.75C16.6264 18.7497 16.3882 18.6509 16.2124 18.4751C16.0366 18.2993 15.9378 18.0611 15.9375 17.8125V16.875H17.8125V17.8125C17.8122 18.0611 17.7133 18.2993 17.5376 18.4751C17.3618 18.6509 17.1236 18.7497 16.875 18.75Z" fill="black"/>
</svg>
