<svg width="509" height="543" viewBox="0 0 509 543" fill="none" xmlns="http://www.w3.org/2000/svg">
<path fill-rule="evenodd" clip-rule="evenodd" d="M164.472 471.201C164.472 467.068 165.062 462.936 165.062 458.803C165.062 373.202 165.062 288.192 165.062 202.591C165.062 196.097 165.652 189.013 165.652 182.519C166.243 168.941 173.327 158.905 183.363 151.231C189.857 146.508 197.531 146.508 205.206 145.918C214.061 145.327 222.916 145.918 231.772 145.918H279C288.445 145.918 298.481 145.918 307.927 146.508C319.734 147.098 327.408 153.592 333.312 163.038C339.215 171.893 341.577 181.929 341.577 192.555C341.577 210.266 342.757 227.976 342.167 246.277C342.167 258.084 341.577 269.891 341.577 281.698C341.577 294.686 333.902 304.131 323.276 311.216C319.734 313.577 313.83 314.758 313.24 318.89C312.65 323.613 319.143 324.794 322.095 327.155C335.673 339.552 341.577 355.492 341.577 373.793C341.577 403.901 340.986 434.599 341.577 464.707C341.577 483.008 340.986 501.899 341.577 520.2C341.577 527.284 339.806 529.645 332.131 530.236C315.011 532.007 303.204 524.332 298.481 507.802C294.349 494.815 293.168 481.236 293.168 467.068C292.578 446.406 293.168 426.334 293.168 405.672C293.168 394.455 290.807 383.238 285.493 372.612C279.59 361.395 269.554 355.492 257.157 354.311C248.301 353.721 239.446 354.311 230.591 354.311C224.097 354.311 222.326 356.082 222.326 362.576C222.326 396.816 221.736 431.057 222.326 464.707C222.326 473.562 222.916 483.008 224.687 491.863C227.639 509.573 164.472 487.73 164.472 471.201Z" fill="#F26322"/>
<path fill-rule="evenodd" clip-rule="evenodd" d="M223.665 497.776C227.142 513.64 237.232 526.068 253.614 533.778C253.691 533.816 253.826 533.861 254.015 533.911L253.002 538.58L202.812 527.681L209.953 494.798L223.665 497.776Z" fill="#F26322"/>
<path fill-rule="evenodd" clip-rule="evenodd" d="M232.952 146.508C225.278 146.508 217.603 146.508 209.929 146.508C189.857 147.098 174.508 158.905 170.375 178.977C168.604 188.423 167.423 198.459 167.423 208.494C167.423 292.915 167.423 377.925 167.423 462.345C167.423 481.827 167.423 501.308 166.833 520.79C166.833 524.922 168.014 527.284 172.146 528.464C189.266 532.597 206.386 536.139 223.507 540.271C224.687 540.862 226.458 541.452 227.639 542.042C208.158 542.042 189.266 542.042 169.785 542.042C165.652 542.042 164.472 541.452 164.472 537.32C164.472 495.405 164.472 453.49 164.472 411.575C164.472 324.793 164.472 238.012 164.472 150.64C164.472 145.917 165.652 144.737 170.375 145.327C191.037 145.327 212.29 145.327 232.952 145.327C234.133 145.327 234.133 145.917 232.952 146.508Z" fill="#FFFCFA"/>
<path fill-rule="evenodd" clip-rule="evenodd" d="M232.952 146.508C232.952 145.917 232.952 145.917 232.952 145.327H281.951C281.951 145.917 281.951 145.917 281.951 146.508H232.952Z" fill="#FFF8F4"/>
<path fill-rule="evenodd" clip-rule="evenodd" d="M299.071 239.193C299.071 249.819 299.071 260.445 299.071 271.072C299.071 281.108 294.939 285.83 284.903 285.83C268.964 285.83 252.434 285.83 236.494 285.83C225.868 285.83 221.736 281.108 221.736 271.072C221.736 249.819 221.736 228.566 221.736 207.314C221.736 197.278 225.868 192.555 235.904 191.965C252.434 191.374 269.554 191.374 286.084 191.965C296.12 191.965 299.662 196.687 299.662 207.314C299.071 217.94 299.071 228.566 299.071 239.193Z" fill="white"/>
<path fill-rule="evenodd" clip-rule="evenodd" d="M254.955 0L509 168.937V404.589L340.804 526.236L317.555 494.091L469.328 384.321V190.198L254.635 47.4299L39.6715 186.238V407.443H0V164.632L254.955 0Z" fill="#F26322"/>
<path fill-rule="evenodd" clip-rule="evenodd" d="M202.778 527.824L0.287369 407.983L20.4929 373.843L222.983 493.684L202.778 527.824Z" fill="#F26322"/>
</svg>
