<svg width="60" height="60" viewBox="0 0 60 60" fill="none" xmlns="http://www.w3.org/2000/svg">
<path d="M1.875 26.25H6.5625V28.125H1.875V26.25Z" fill="black"/>
<path d="M50.4197 59.0625H43.3303L42.765 56.7975L40.7634 57.9994L35.7506 52.9875L36.9525 50.985L34.6875 50.4197V44.7619H36.5625V48.9553L38.8584 49.5281L39.3272 50.6719L38.1122 52.6959L41.0541 55.6378L43.0772 54.4237L44.1478 54.8587L44.3381 55.3603L44.7947 57.1875H48.9553L49.5291 54.8887L50.6728 54.4237L52.6959 55.6378L55.6378 52.6959L54.4228 50.6719L54.8597 49.604L55.3603 49.4109L57.1875 48.9553V44.7947L54.8944 44.2219L54.4228 43.0781L55.6378 41.054L52.1784 37.5947L53.5041 36.269L57.9994 40.7625L56.7975 42.765L59.0625 43.3303V50.4197L56.7975 50.985L57.9994 52.9875L52.9866 57.9994L50.985 56.7975L50.4197 59.0625Z" fill="black"/>
<path d="M46.875 53.4375C43.2563 53.4375 40.3125 50.4928 40.3125 46.875C40.3125 45.9881 40.4878 45.1256 40.8319 44.3128L42.5587 45.045C42.3122 45.6244 42.1875 46.2403 42.1875 46.875C42.1875 49.4597 44.2903 51.5625 46.875 51.5625C49.4597 51.5625 51.5625 49.4597 51.5625 46.875C51.5625 44.8538 50.2725 43.0669 48.3516 42.4294L48.9422 40.65C51.6309 41.5425 53.4375 44.0428 53.4375 46.875C53.4375 50.4928 50.4937 53.4375 46.875 53.4375Z" fill="black"/>
<path d="M50.625 4.6875H54.375V6.5625H50.625V4.6875Z" fill="#F0BC5E"/>
<path d="M10.0714 23.5714L11.1428 15H13.0714L14.1428 23.1429L12 25.2857L10.0714 23.5714Z" fill="#FEB104"/>
<path d="M54.375 10.3125H45.9375V5.625C45.9375 3.04031 48.0403 0.9375 50.625 0.9375H54.375C56.9597 0.9375 59.0625 3.04031 59.0625 5.625C59.0625 8.20969 56.9597 10.3125 54.375 10.3125ZM47.8125 8.4375H54.375C55.9256 8.4375 57.1875 7.17562 57.1875 5.625C57.1875 4.07437 55.9256 2.8125 54.375 2.8125H50.625C49.0744 2.8125 47.8125 4.07437 47.8125 5.625V8.4375Z" fill="black"/>
<path d="M49.6875 4.6875H51.5625V6.5625H49.6875V4.6875Z" fill="black"/>
<path d="M53.4375 4.6875H55.3125V6.5625H53.4375V4.6875Z" fill="black"/>
<path d="M38.4375 10.3125C28.6153 10.3125 20.625 18.3028 20.625 28.125C20.625 28.6238 20.6597 29.115 20.7 29.6034C21.2222 30.0338 21.5625 30.6769 21.5625 31.4062C21.5625 31.8487 21.4331 32.2575 21.2194 32.6109C23.2163 40.2638 30.1678 45.9375 38.4375 45.9375C48.2597 45.9375 56.25 37.9472 56.25 28.125C56.25 18.3028 48.2597 10.3125 38.4375 10.3125ZM38.4375 41.25C31.2 41.25 25.3125 35.3625 25.3125 28.125C25.3125 20.8875 31.2 15 38.4375 15C45.675 15 51.5625 20.8875 51.5625 28.125C51.5625 35.3625 45.675 41.25 38.4375 41.25Z" fill="#FEB104"/>
<path d="M25.7006 45L28.1025 42.5972C27.5906 42.2297 27.0975 41.8397 26.6278 41.4206L24.375 43.6744L22.8881 42.1875L25.1438 39.9309C24.7266 39.4603 24.3375 38.9653 23.9709 38.4525L21.5625 40.8619L20.625 39.9244L18.75 41.7994V34.6875H19.2188C21.0281 34.6875 22.5 33.2156 22.5 31.4062C22.5 29.5969 21.0281 28.125 19.2188 28.125H18.75V22.0312C18.75 21.2559 19.3809 20.625 20.1563 20.625H22.3031C22.605 19.9772 22.9444 19.3528 23.3194 18.75H20.1563C18.3469 18.75 16.875 20.2219 16.875 22.0312V28.125H8.4375C7.92094 28.125 7.5 27.705 7.5 27.1875V20.625H5.625V27.1875C5.625 28.7381 6.88688 30 8.4375 30H19.2188C19.9941 30 20.625 30.6309 20.625 31.4062C20.625 32.1816 19.9941 32.8125 19.2188 32.8125H7.5C4.91531 32.8125 2.8125 30.7097 2.8125 28.125V22.5C2.8125 18.8822 5.75625 15.9375 9.375 15.9375H10.0997L9.33656 23.7872L12.1875 26.6381L15.0384 23.7872L14.2753 15.9375H25.4831C26.1206 15.2597 26.8088 14.6334 27.5456 14.0625H17.1319C18.6947 12.6872 19.6875 10.6781 19.6875 8.4375C19.6875 4.30219 16.3228 0.9375 12.1875 0.9375C8.05219 0.9375 4.6875 4.30219 4.6875 8.4375C4.6875 10.7981 5.78625 12.9047 7.49719 14.2809C3.74719 15.1378 0.9375 18.4941 0.9375 22.5V28.125C0.9375 31.0912 2.9175 33.6019 5.625 34.4109V55.3125C5.625 57.3806 7.30688 59.0625 9.375 59.0625C10.5 59.0625 11.4994 58.5544 12.1875 57.7669C12.8756 58.5544 13.875 59.0625 15 59.0625C17.0681 59.0625 18.75 57.3806 18.75 55.3125V53.8256L26.6381 45.9375L25.7006 45ZM13.0866 23.0878L12.1875 23.9869L11.2884 23.0878L11.9831 15.9375H12.3909L13.0866 23.0878ZM6.5625 8.4375C6.5625 5.33531 9.08531 2.8125 12.1875 2.8125C15.2897 2.8125 17.8125 5.33531 17.8125 8.4375C17.8125 11.5397 15.2897 14.0625 12.1875 14.0625C9.08531 14.0625 6.5625 11.5397 6.5625 8.4375ZM15 57.1875C13.9659 57.1875 13.125 56.3466 13.125 55.3125V38.4375H11.25V55.3125C11.25 56.3466 10.4091 57.1875 9.375 57.1875C8.34094 57.1875 7.5 56.3466 7.5 55.3125V34.6875H16.875V55.3125C16.875 56.3466 16.0341 57.1875 15 57.1875ZM18.75 51.1744V44.4506L20.625 42.5756L23.9869 45.9375L18.75 51.1744Z" fill="black"/>
<path d="M38.4375 14.0625C30.6834 14.0625 24.375 20.3709 24.375 28.125C24.375 35.8791 30.6834 42.1875 38.4375 42.1875C46.1916 42.1875 52.5 35.8791 52.5 28.125C52.5 20.3709 46.1916 14.0625 38.4375 14.0625ZM38.4375 15.9375C45.1575 15.9375 50.625 21.405 50.625 28.125C50.625 30.5016 49.9312 32.7141 48.75 34.59V23.4375H43.125V27.1875H41.25V17.8125H35.625V30.9375H33.75V25.3125H28.125V34.59C26.9437 32.7131 26.25 30.5006 26.25 28.125C26.25 21.405 31.7175 15.9375 38.4375 15.9375ZM41.25 29.0625H43.125V39.3722C42.5241 39.6234 41.895 39.8184 41.25 39.9722V29.0625ZM46.875 36.8991C46.3013 37.4513 45.6731 37.9463 45 38.3784V25.3125H46.875V36.8991ZM31.875 38.3784C31.2019 37.9463 30.5738 37.4513 30 36.8991V27.1875H31.875V38.3784ZM33.75 32.8125H35.625V39.9722C34.98 39.8194 34.3509 39.6244 33.75 39.3722V32.8125ZM37.5 40.2647V19.6875H39.375V40.2647C39.0647 40.2891 38.7544 40.3125 38.4375 40.3125C38.1206 40.3125 37.8103 40.2891 37.5 40.2647Z" fill="black"/>
</svg>
