<svg width="18" height="20" viewBox="0 0 18 20" fill="none" xmlns="http://www.w3.org/2000/svg">
<path d="M14.9291 2.45591C13.3454 0.872191 11.2397 0 9.00008 0C6.76042 0 4.65478 0.872152 3.07099 2.45591C1.4873 4.03959 0.615112 6.14514 0.615112 8.3848C0.615112 10.6245 1.4873 12.7301 3.07099 14.3138L8.58578 19.8284C8.7002 19.9429 8.85016 20 9.00008 20C9.15004 20 9.3 19.9428 9.41438 19.8284L14.929 14.3138C16.5127 12.7301 17.3849 10.6245 17.3849 8.38484C17.3849 6.1451 16.5127 4.03955 14.9291 2.45591ZM11.6334 11.018C10.93 11.7214 9.99485 12.1088 9.00012 12.1088C8.00539 12.1088 7.07023 11.7214 6.3669 11.0181C5.6635 10.3147 5.27615 9.37953 5.27615 8.3848C5.27615 7.39011 5.6635 6.45495 6.3669 5.75155C7.07023 5.04818 8.00539 4.66084 9.00012 4.66084C9.99485 4.66084 10.93 5.04818 11.6334 5.75155C12.3367 6.45487 12.7241 7.39003 12.7241 8.38476C12.7241 9.37949 12.3367 10.3147 11.6334 11.018Z" fill="black"/>
</svg>
