<svg width="23" height="22" viewBox="0 0 23 22" fill="none" xmlns="http://www.w3.org/2000/svg">
<g clip-path="url(#clip0_567:1431)">
<path d="M13.4225 0H9.02192C4.77553 0 1.32092 3.4546 1.32092 7.70099V11.0014C1.32092 13.9826 3.04028 16.6881 5.72148 17.9607V21.6361C5.72148 21.9552 6.12071 22.1221 6.3475 21.8954L9.54046 18.7024H13.4224C17.6688 18.7024 21.1234 15.2478 21.1234 11.0014V7.70099C21.1234 3.4546 17.6688 0 13.4225 0Z" fill="black"/>
<path d="M9.22709 7.899L9.58562 7.54043L9.58601 7.54004L9.22705 7.89896L9.22709 7.899Z" fill="#E5E5E5"/>
<path d="M13.2159 11.1702L12.8539 11.5322L12.8539 11.5323L13.216 11.1702L13.2159 11.1702Z" fill="#E5E5E5"/>
<path d="M11.9557 6.23438C11.7532 6.23438 11.589 6.39856 11.589 6.60107C11.589 6.80358 11.7532 6.96777 11.9557 6.96777C12.7645 6.96777 13.4226 7.62579 13.4226 8.43463C13.4226 8.63444 13.5894 8.80133 13.7892 8.80133C13.9891 8.80133 14.1559 8.63444 14.1559 8.43463C14.156 7.22137 13.169 6.23438 11.9557 6.23438Z" fill="white"/>
<path d="M11.9557 4.76758C11.82 4.76758 11.6831 4.7751 11.5487 4.78992C11.3474 4.81214 11.2022 4.99334 11.2244 5.19469C11.2466 5.39604 11.4282 5.54084 11.6292 5.51897C11.7369 5.50707 11.8468 5.50101 11.9557 5.50101C13.5733 5.50101 14.8894 6.81706 14.8894 8.4347C14.8894 8.54363 14.8833 8.65346 14.8714 8.76122C14.8495 8.95978 14.997 9.14412 15.1957 9.16599C15.3943 9.18786 15.5785 9.04035 15.6004 8.8417C15.6153 8.7073 15.6228 8.5704 15.6228 8.4347C15.6228 6.41268 13.9777 4.76758 11.9557 4.76758Z" fill="white"/>
<path d="M11.9562 3.30078C11.8252 3.30078 11.6925 3.30577 11.5618 3.31569C11.3599 3.33099 11.2085 3.50716 11.2238 3.70907C11.2391 3.91102 11.4159 4.06236 11.6172 4.04706C11.7295 4.03851 11.8436 4.03421 11.9562 4.03421C14.3827 4.03421 16.3568 6.00829 16.3568 8.43477C16.3568 8.77809 16.3172 9.11987 16.2391 9.45056C16.1943 9.64005 16.311 9.83702 16.4989 9.88849C16.6966 9.94263 16.9057 9.81867 16.9528 9.61925C17.044 9.23335 17.0902 8.83486 17.0902 8.43477C17.0902 5.60386 14.7872 3.30078 11.9562 3.30078Z" fill="white"/>
<path d="M17.4095 13.9863C17.1481 14.7226 16.1105 15.3333 15.2829 15.5116C14.7167 15.6319 13.9771 15.7278 11.4875 14.6983C8.30295 13.3824 6.25219 10.1547 6.09235 9.94532C5.93929 9.73591 4.80554 8.23624 4.80554 6.68524C4.80554 5.13423 5.59524 4.379 5.91355 4.05474C6.17498 3.78859 6.60707 3.66699 7.02156 3.66699C7.15566 3.66699 7.27621 3.67375 7.38458 3.67915C7.70289 3.69266 7.86273 3.71158 8.07268 4.21282C8.33411 4.84105 8.97074 6.39206 9.04659 6.55148C9.1238 6.71091 9.20101 6.92708 9.09265 7.13649C8.99106 7.35266 8.90166 7.44858 8.74182 7.63232C8.58199 7.81607 8.43028 7.95658 8.27044 8.15383C8.12415 8.32541 7.9589 8.50915 8.14312 8.82665C8.32733 9.13739 8.96396 10.1736 9.9013 11.0059C11.1109 12.08 12.0916 12.4231 12.4424 12.5691C12.7038 12.6771 13.0154 12.6515 13.2064 12.4488C13.4488 12.1881 13.7482 11.7557 14.053 11.3301C14.2697 11.0248 14.5433 10.987 14.8305 11.0951C15.123 11.1964 16.6713 11.9597 16.9896 12.1178C17.3079 12.2772 17.5179 12.3529 17.5951 12.4866C17.6709 12.6204 17.6709 13.2486 17.4095 13.9863Z" fill="#FAFAFA"/>
</g>
<defs>
<clipPath id="clip0_567:1431">
<rect width="22" height="22" fill="white" transform="translate(0.222168)"/>
</clipPath>
</defs>
</svg>
