<svg width="30" height="30" viewBox="0 0 30 30" fill="none" xmlns="http://www.w3.org/2000/svg">
<g clip-path="url(#clip0_64:759)">
<path d="M18.0004 0H11.9996C6.20911 0 1.49829 4.71082 1.49829 10.5013V15.0019C1.49829 19.0672 3.84286 22.7565 7.49906 24.4918V29.5038C7.49906 29.9389 8.04345 30.1665 8.35271 29.8574L12.7068 25.5033H18.0004C23.7908 25.5033 28.5017 20.7925 28.5017 15.0019V10.5013C28.5017 4.71082 23.7908 0 18.0004 0Z" fill="#59267C"/>
<path d="M12.2795 10.7718L12.7684 10.2829L12.7689 10.2823L12.2794 10.7718L12.2795 10.7718Z" fill="#E5E5E5"/>
<path d="M17.7188 15.2327L17.2251 15.7264L17.2252 15.7265L17.7189 15.2328L17.7188 15.2327Z" fill="#E5E5E5"/>
<path d="M16.0003 8.50098C15.7241 8.50098 15.5002 8.72486 15.5002 9.00102C15.5002 9.27717 15.7241 9.50105 16.0003 9.50105C17.1033 9.50105 18.0006 10.3984 18.0006 11.5013C18.0006 11.7738 18.2281 12.0014 18.5006 12.0014C18.7731 12.0014 19.0006 11.7738 19.0006 11.5013C19.0007 9.84687 17.6547 8.50098 16.0003 8.50098Z" fill="white"/>
<path d="M16.0002 6.50078C15.8152 6.50078 15.6285 6.51103 15.4453 6.53125C15.1708 6.56154 14.9728 6.80863 15.0031 7.0832C15.0334 7.35777 15.281 7.55523 15.555 7.52541C15.702 7.50918 15.8517 7.50092 16.0002 7.50092C18.2061 7.50092 20.0007 9.29552 20.0007 11.5014C20.0007 11.6499 19.9924 11.7997 19.9762 11.9467C19.9463 12.2174 20.1475 12.4688 20.4184 12.4986C20.6892 12.5284 20.9404 12.3273 20.9704 12.0564C20.9906 11.8731 21.0008 11.6864 21.0008 11.5014C21.0008 8.7441 18.7576 6.50078 16.0002 6.50078Z" fill="white"/>
<path d="M16.0008 4.5005C15.8221 4.5005 15.6411 4.5073 15.463 4.52084C15.1876 4.54169 14.9812 4.78193 15.0021 5.05726C15.0229 5.33265 15.2639 5.53902 15.5385 5.51816C15.6916 5.5065 15.8472 5.50064 16.0008 5.50064C19.3096 5.50064 22.0016 8.19256 22.0016 11.5014C22.0016 11.9696 21.9475 12.4356 21.841 12.8866C21.7799 13.145 21.939 13.4136 22.1953 13.4837C22.4649 13.5576 22.7501 13.3885 22.8143 13.1166C22.9386 12.5904 23.0017 12.047 23.0017 11.5014C23.0017 7.64107 19.8611 4.5005 16.0008 4.5005Z" fill="white"/>
<path d="M23.4372 19.0718C23.0807 20.0759 21.6658 20.9086 20.5373 21.1518C19.7652 21.3158 18.7567 21.4466 15.3617 20.0427C11.0192 18.2483 8.2227 13.8469 8.00474 13.5614C7.79602 13.2758 6.25 11.2308 6.25 9.11579C6.25 7.00078 7.32686 5.97091 7.76092 5.52875C8.11741 5.16581 8.70663 5 9.27184 5C9.45471 5 9.6191 5.00921 9.76687 5.01658C10.2009 5.035 10.4189 5.0608 10.7052 5.74431C11.0617 6.60099 11.9298 8.716 12.0332 8.9334C12.1385 9.15079 12.2438 9.44557 12.0961 9.73113C11.9575 10.0259 11.8356 10.1567 11.6177 10.4073C11.3997 10.6578 11.1928 10.8494 10.9749 11.1184C10.7754 11.3524 10.55 11.6029 10.8012 12.0359C11.0524 12.4596 11.9206 13.8727 13.1988 15.0076C14.8482 16.4723 16.1855 16.9402 16.6639 17.1392C17.0204 17.2866 17.4452 17.2516 17.7057 16.9752C18.0363 16.6196 18.4445 16.0301 18.8601 15.4498C19.1556 15.0334 19.5288 14.9818 19.9203 15.1292C20.3193 15.2674 22.4305 16.3083 22.8646 16.5238C23.2987 16.7412 23.585 16.8444 23.6903 17.0268C23.7937 17.2092 23.7937 18.0659 23.4372 19.0718Z" fill="white"/>
</g>
<defs>
<clipPath id="clip0_64:759">
<rect width="30" height="30" fill="white"/>
</clipPath>
</defs>
</svg>
