<svg width="23" height="22" viewBox="0 0 23 22" fill="none" xmlns="http://www.w3.org/2000/svg">
<g clip-path="url(#clip0_567:1422)">
<path d="M22.4389 16.0595C22.4123 16.0021 22.3874 15.9544 22.3644 15.9163C21.9827 15.2288 21.2533 14.385 20.1766 13.3846L20.1538 13.3617L20.1424 13.3505L20.1309 13.339H20.1194C19.6307 12.8731 19.3212 12.5599 19.1917 12.3996C18.9546 12.0941 18.9014 11.7849 19.031 11.4716C19.1226 11.2349 19.4665 10.735 20.0619 9.97124C20.3752 9.56648 20.6232 9.24207 20.8064 8.99766C22.1276 7.24121 22.7004 6.11882 22.5247 5.63004L22.4564 5.51582C22.4106 5.44706 22.2922 5.38415 22.1015 5.32678C21.9104 5.26953 21.6661 5.26006 21.3682 5.29821L18.0694 5.321C18.016 5.30206 17.9396 5.30383 17.8402 5.32678C17.7409 5.34973 17.6913 5.36124 17.6913 5.36124L17.6339 5.38993L17.5883 5.42439C17.5501 5.44718 17.5081 5.48726 17.4622 5.54455C17.4166 5.60164 17.3784 5.66864 17.348 5.74499C16.9888 6.66899 16.5805 7.52807 16.1222 8.3222C15.8396 8.79574 15.5801 9.20612 15.3431 9.5536C15.1065 9.90096 14.9079 10.1569 14.7477 10.3209C14.5872 10.4851 14.4424 10.6167 14.3123 10.7161C14.1824 10.8155 14.0833 10.8575 14.0146 10.8421C13.9458 10.8268 13.881 10.8115 13.8197 10.7963C13.7129 10.7275 13.6269 10.634 13.5621 10.5156C13.4971 10.3973 13.4532 10.2483 13.4303 10.0689C13.4076 9.88928 13.3941 9.73482 13.3902 9.60495C13.3866 9.47524 13.3883 9.29178 13.396 9.05507C13.404 8.81824 13.4076 8.658 13.4076 8.57399C13.4076 8.28377 13.4132 7.96879 13.4246 7.62897C13.4361 7.28916 13.4455 7.01991 13.4533 6.82156C13.4611 6.62301 13.4647 6.41294 13.4647 6.19148C13.4647 5.97002 13.4512 5.79634 13.4246 5.67028C13.3982 5.54439 13.3578 5.42218 13.3046 5.30371C13.251 5.18536 13.1727 5.0938 13.0698 5.02881C12.9667 4.9639 12.8386 4.91238 12.6861 4.87411C12.2813 4.78251 11.7659 4.73297 11.1396 4.72526C9.7193 4.71002 8.8067 4.80173 8.40197 5.00028C8.24161 5.08417 8.0965 5.1988 7.96675 5.34379C7.82926 5.51185 7.81008 5.60357 7.90934 5.61865C8.36759 5.6873 8.69199 5.85151 8.88292 6.11112L8.95173 6.24869C9.00525 6.34795 9.05869 6.52367 9.11217 6.77562C9.16557 7.02758 9.20003 7.30629 9.2152 7.6116C9.25331 8.16914 9.25331 8.64641 9.2152 9.04344C9.17696 9.44062 9.14085 9.74982 9.10639 9.97129C9.07193 10.1927 9.02041 10.3722 8.95173 10.5096C8.88292 10.6471 8.83715 10.7311 8.8142 10.7616C8.79129 10.7921 8.77219 10.8113 8.75703 10.8188C8.65777 10.8568 8.55454 10.8762 8.4477 10.8762C8.3407 10.8762 8.21096 10.8227 8.05826 10.7157C7.90561 10.6088 7.74717 10.4619 7.58296 10.2748C7.41875 10.0876 7.23356 9.82605 7.0273 9.49009C6.82121 9.15413 6.60737 8.75706 6.38591 8.29889L6.20268 7.96662C6.08814 7.75286 5.93167 7.44161 5.73312 7.03315C5.53445 6.62453 5.35884 6.22927 5.20619 5.84745C5.14516 5.68709 5.05349 5.56501 4.93133 5.481L4.87399 5.44654C4.83588 5.41604 4.7747 5.38367 4.69077 5.34917C4.60672 5.3147 4.51901 5.28999 4.4273 5.27478L1.28877 5.29757C0.968054 5.29757 0.750444 5.37023 0.635862 5.51534L0.590005 5.58399C0.567096 5.62222 0.555542 5.68328 0.555542 5.76733C0.555542 5.85134 0.57845 5.95445 0.624307 6.07654C1.08248 7.15335 1.58072 8.19185 2.11905 9.1922C2.65738 10.1925 3.12517 10.9984 3.52216 11.6089C3.91922 12.2199 4.32395 12.7965 4.73634 13.3385C5.14874 13.8808 5.42171 14.2282 5.55527 14.3809C5.68899 14.5338 5.79402 14.6482 5.87037 14.7245L6.15679 14.9994C6.34005 15.1827 6.60918 15.4022 6.96428 15.658C7.31946 15.9139 7.71267 16.1659 8.14412 16.4142C8.57565 16.6622 9.07767 16.8646 9.65046 17.0211C10.2232 17.1778 10.7806 17.2406 11.3228 17.2103H12.6401C12.9073 17.1872 13.1097 17.1032 13.2472 16.9582L13.2928 16.9008C13.3235 16.8552 13.3521 16.7844 13.3786 16.6891C13.4054 16.5937 13.4187 16.4885 13.4187 16.3742C13.4109 16.0459 13.4359 15.75 13.493 15.4866C13.5501 15.2232 13.6152 15.0247 13.688 14.8909C13.7607 14.7573 13.8428 14.6446 13.9342 14.5532C14.0257 14.4616 14.091 14.4061 14.1292 14.387C14.1673 14.3678 14.1976 14.3548 14.2205 14.3469C14.4038 14.2859 14.6195 14.345 14.8679 14.5246C15.1161 14.7041 15.3489 14.9257 15.5667 15.189C15.7844 15.4526 16.0459 15.7483 16.3513 16.0766C16.6569 16.4051 16.9241 16.6492 17.1531 16.8098L17.3821 16.9472C17.535 17.0389 17.7335 17.123 17.978 17.1993C18.2219 17.2756 18.4357 17.2947 18.6192 17.2566L21.5515 17.2108C21.8415 17.2108 22.0672 17.1628 22.2272 17.0675C22.3876 16.9721 22.4829 16.8669 22.5137 16.7525C22.5443 16.638 22.546 16.5081 22.5195 16.3629C22.4923 16.218 22.4656 16.1167 22.4389 16.0595Z" fill="black"/>
</g>
<defs>
<clipPath id="clip0_567:1422">
<rect width="22" height="22" fill="white" transform="translate(0.555542)"/>
</clipPath>
</defs>
</svg>
