<svg width="30" height="30" viewBox="0 0 30 30" fill="none" xmlns="http://www.w3.org/2000/svg">
<path d="M15.0035 1H14.9965C7.27725 1 1 7.279 1 15C1 18.0625 1.987 20.901 3.66525 23.2057L1.9205 28.4067L7.30175 26.6865C9.5155 28.153 12.1562 29 15.0035 29C22.7227 29 29 22.7192 29 15C29 7.28075 22.7227 1 15.0035 1Z" fill="#25D366"/>
<path d="M23.7319 21.1819C23.37 22.2037 21.9338 23.0512 20.7882 23.2987C20.0044 23.4656 18.9807 23.5987 15.5344 22.17C11.1263 20.3437 8.28753 15.8644 8.06628 15.5737C7.85441 15.2831 6.28503 13.2019 6.28503 11.0494C6.28503 8.89687 7.37816 7.84875 7.81878 7.39875C8.18066 7.02938 8.77878 6.86063 9.35253 6.86063C9.53816 6.86063 9.70503 6.87 9.85503 6.8775C10.2957 6.89625 10.5169 6.9225 10.8075 7.61813C11.1694 8.49 12.0507 10.6425 12.1557 10.8637C12.2625 11.085 12.3694 11.385 12.2194 11.6756C12.0788 11.9756 11.955 12.1087 11.7338 12.3637C11.5125 12.6187 11.3025 12.8137 11.0813 13.0875C10.8788 13.3256 10.65 13.5806 10.905 14.0212C11.16 14.4525 12.0413 15.8906 13.3388 17.0456C15.0132 18.5362 16.3707 19.0125 16.8563 19.215C17.2182 19.365 17.6494 19.3294 17.9138 19.0481C18.2494 18.6862 18.6638 18.0862 19.0857 17.4956C19.3857 17.0719 19.7644 17.0194 20.1619 17.1694C20.5669 17.31 22.71 18.3694 23.1507 18.5887C23.5913 18.81 23.8819 18.915 23.9888 19.1006C24.0938 19.2862 24.0938 20.1581 23.7319 21.1819Z" fill="white"/>
</svg>
