<svg width="23" height="22" viewBox="0 0 23 22" fill="none" xmlns="http://www.w3.org/2000/svg">
<g clip-path="url(#clip0_567:1441)">
<path d="M11.7805 0.733398H11.7753C6.11455 0.733398 1.51123 5.338 1.51123 11.0001C1.51123 13.2459 2.23503 15.3275 3.46575 17.0176L2.18626 20.8317L6.13251 19.5702C7.75593 20.6456 9.69248 21.2667 11.7805 21.2667C17.4412 21.2667 22.0446 16.6608 22.0446 11.0001C22.0446 5.33928 17.4412 0.733398 11.7805 0.733398Z" fill="black"/>
<path d="M18.1812 15.5335C17.9158 16.2829 16.8626 16.9044 16.0225 17.0859C15.4477 17.2082 14.697 17.3059 12.1697 16.2581C8.93709 14.9189 6.85534 11.634 6.69309 11.4209C6.53772 11.2077 5.38684 9.6815 5.38684 8.103C5.38684 6.5245 6.18847 5.75587 6.51159 5.42587C6.77697 5.155 7.21559 5.03125 7.63634 5.03125C7.77247 5.03125 7.89484 5.03813 8.00484 5.04363C8.32797 5.05738 8.49022 5.07663 8.70334 5.58675C8.96872 6.22612 9.61497 7.80462 9.69197 7.96687C9.77034 8.12912 9.84872 8.34912 9.73872 8.56225C9.63559 8.78225 9.54484 8.87987 9.38259 9.06687C9.22034 9.25387 9.06634 9.39687 8.90409 9.59762C8.75559 9.77225 8.58784 9.95925 8.77484 10.2824C8.96184 10.5986 9.60809 11.6532 10.5596 12.5002C11.7875 13.5934 12.783 13.9426 13.1391 14.0911C13.4045 14.2011 13.7207 14.175 13.9146 13.9687C14.1607 13.7034 14.4646 13.2634 14.774 12.8302C14.994 12.5195 15.2717 12.481 15.5632 12.591C15.8602 12.6941 17.4318 13.471 17.755 13.6319C18.0781 13.7941 18.2912 13.8711 18.3696 14.0072C18.4466 14.1434 18.4466 14.7827 18.1812 15.5335Z" fill="#FAFAFA"/>
</g>
<defs>
<clipPath id="clip0_567:1441">
<rect width="22" height="22" fill="white" transform="translate(0.777832)"/>
</clipPath>
</defs>
</svg>
