<svg width="60" height="60" viewBox="0 0 60 60" fill="none" xmlns="http://www.w3.org/2000/svg">
<g clip-path="url(#clip0_1500:2265)">
<path d="M17.5714 53.5714H27.75L31.0714 54.4286L32.8393 53.5714H37.9286H43.0178L45 54.4286L48.1071 53.5714H58.2857V60H17.5714V53.5714Z" fill="#FEB104"/>
<path d="M55.8961 52.0917C56.6037 51.2165 56.9917 50.1262 56.9961 49.0007V47.0007C56.9961 44.2394 54.7575 42.0007 51.9961 42.0007C49.2347 42.0007 46.9961 44.2394 46.9961 47.0007V49.0007C47.0005 50.1262 47.3885 51.2165 48.0961 52.0917C46.8545 52.3226 45.7466 53.016 44.9961 54.0317C44.2456 53.016 43.1377 52.3226 41.8961 52.0917C42.6037 51.2165 42.9917 50.1262 42.9961 49.0007V47.0007C42.9961 44.2394 40.7575 42.0007 37.9961 42.0007C35.2347 42.0007 32.9961 44.2394 32.9961 47.0007V49.0007C33.0005 50.1262 33.3885 51.2165 34.0961 52.0917C32.8545 52.3226 31.7466 53.016 30.9961 54.0317C30.2456 53.016 29.1377 52.3226 27.8961 52.0917C28.6037 51.2165 28.9917 50.1262 28.9961 49.0007V47.0007C28.9961 44.2394 26.7575 42.0007 23.9961 42.0007C21.2347 42.0007 18.9961 44.2394 18.9961 47.0007V49.0007C19.0005 50.1262 19.3885 51.2165 20.0961 52.0917C17.7247 52.5256 16.0006 54.59 15.9961 57.0007V60.0007H17.9961V57.0007C17.9961 55.3439 19.3392 54.0007 20.9961 54.0007H26.9961C28.653 54.0007 29.9961 55.3439 29.9961 57.0007V60.0007H31.9961V57.0007C31.9961 55.3439 33.3392 54.0007 34.9961 54.0007H40.9961C42.653 54.0007 43.9961 55.3439 43.9961 57.0007V60.0007H45.9961V57.0007C45.9961 55.3439 47.3392 54.0007 48.9961 54.0007H54.9961C56.653 54.0007 57.9961 55.3439 57.9961 57.0007V60.0007H59.9961V57.0007C59.9916 54.59 58.2675 52.5256 55.8961 52.0917ZM26.9961 49.0007C26.9961 50.6576 25.653 52.0007 23.9961 52.0007C22.3392 52.0007 20.9961 50.6576 20.9961 49.0007V47.0007C20.9961 45.3439 22.3392 44.0007 23.9961 44.0007C25.653 44.0007 26.9961 45.3439 26.9961 47.0007V49.0007ZM40.9961 49.0007C40.9961 50.6576 39.653 52.0007 37.9961 52.0007C36.3392 52.0007 34.9961 50.6576 34.9961 49.0007V47.0007C34.9961 45.3439 36.3392 44.0007 37.9961 44.0007C39.653 44.0007 40.9961 45.3439 40.9961 47.0007V49.0007ZM54.9961 49.0007C54.9961 50.6576 53.653 52.0007 51.9961 52.0007C50.3392 52.0007 48.9961 50.6576 48.9961 49.0007V47.0007C48.9961 45.3439 50.3392 44.0007 51.9961 44.0007C53.653 44.0007 54.9961 45.3439 54.9961 47.0007V49.0007Z" fill="black"/>
<path d="M5.31005 11.5946L8.68636 9.42856L11.8641 11.0038L12.8571 13.5637L12.0627 15.5328C11.6655 15.7954 11.0696 16.7143 8.88497 16.7143C6.8989 16.7143 6.23688 15.7954 5.90587 15.5328L4.71423 15.3359L5.31005 11.5946Z" fill="#FEB104"/>
<path d="M24.3657 20.0691C24.2492 20.0231 24.1252 19.9995 24 19.9994H20C19.5795 19.9993 19.2039 20.2623 19.06 20.6574L18 23.5724L17.965 23.4774C17.2017 21.3926 15.2201 20.0044 13 19.9994H12.974C13.6357 19.139 13.9964 18.0849 14 16.9994V14.1422C14 11.3809 11.7614 9.14224 9 9.14224C6.23863 9.14224 4 11.3809 4 14.1422V16.9994C4.00362 18.0849 4.36425 19.139 5.026 19.9994H5C2.24 20.0026 0.00325 22.2394 0 24.9994V36.9994C0 37.5516 0.44775 37.9994 1 37.9994H4V47.6994L2.168 50.4444C1.8615 50.9038 1.98537 51.5248 2.44488 51.8313C2.60925 51.9409 2.80238 51.9994 3 51.9994H15C15.5522 51.9995 16.0001 51.5518 16.0001 50.9995C16.0001 50.8019 15.9416 50.6088 15.832 50.4444L14 47.6994V29.2354L14.252 29.7354C15.2625 31.755 17.7188 32.5731 19.7384 31.5626C20.6334 31.1149 21.333 30.3544 21.705 29.4254L23.329 25.3664L24.929 21.3664C25.1318 20.8526 24.8795 20.2719 24.3657 20.0691ZM6 14.1422C6 12.4854 7.34312 11.1422 9 11.1422C10.6569 11.1422 12 12.4854 12 14.1422V16.9994C12 18.6563 10.6569 19.9994 9 19.9994C7.34312 19.9994 6 18.6563 6 16.9994V14.1422ZM4 35.9994H2V33.9994H4V35.9994ZM10 49.9994V37.9994H8V49.9994H4.869L5.832 48.5544C5.94125 48.3899 5.99963 48.1969 6 47.9994V35.9994H12V47.9994C12.0004 48.1969 12.0588 48.3899 12.168 48.5544L13.131 49.9994H10ZM19.848 28.6874C19.4187 29.7583 18.2026 30.2785 17.1318 29.8493C16.6576 29.6593 16.2696 29.3021 16.041 28.8454L13.9 24.5524C13.6594 24.0553 13.0612 23.8474 12.5641 24.0881C12.2154 24.257 11.9956 24.612 12 24.9994V33.9994H6V24.9994C6 24.4471 5.55225 23.9994 5 23.9994C4.44775 23.9994 4 24.4471 4 24.9994V31.9994H2V24.9994C2 23.3425 3.34312 21.9994 5 21.9994H8V31.9994H10V21.9994H13C14.3795 22.0021 15.611 22.8648 16.085 24.1604L17.06 26.8414C17.2484 27.3605 17.822 27.6286 18.3411 27.4403C18.6196 27.3393 18.8389 27.1199 18.94 26.8414L19.246 25.9994H20.923L19.848 28.6874ZM21.723 23.9994H19.973L20.7 21.9994H22.523L21.723 23.9994Z" fill="black"/>
<path d="M58.9961 6C59.5483 6 59.9961 5.55225 59.9961 5V1C59.9961 0.44775 59.5483 0 58.9961 0H16.9961C16.4438 0 15.9961 0.44775 15.9961 1V5C15.9961 5.55225 16.4438 6 16.9961 6H17.9961V18H19.9961V6H55.9961V28H23.9961V30H36.9961V34.42L30.4961 38.132L31.4881 39.868L36.9961 36.723V40H38.9961V36.723L44.4961 39.868L45.4881 38.132L38.9961 34.42V30H59.9961V28H57.9961V6H58.9961ZM17.9961 4V2H57.9961V4H17.9961Z" fill="black"/>
<path d="M49.2489 11.0305L45.2491 10.0305L44.7631 11.9704L46.636 12.4384L39.0463 17.7512L34.6315 14.2193C34.2819 13.9401 33.7894 13.927 33.4255 14.1873L26.4258 19.1871L27.5877 20.8131L33.9725 16.2533L38.3813 19.7811C38.7283 20.0592 39.2173 20.0747 39.5813 19.8191L48.0059 13.9214V16.0003H50.0059V12.0004C50.0059 11.5418 49.6938 11.142 49.2489 11.0305Z" fill="black"/>
<rect x="5.57141" y="13.7143" width="6.85714" height="1.71428" fill="black"/>
</g>
<defs>
<clipPath id="clip0_1500:2265">
<rect width="60" height="60" fill="white"/>
</clipPath>
</defs>
</svg>
