<svg width="23" height="22" viewBox="0 0 23 22" fill="none" xmlns="http://www.w3.org/2000/svg">
<g clip-path="url(#clip0_567:1425)">
<path d="M22.6542 9.15824C22.6462 8.71633 22.6112 8.15759 22.5501 7.48253C22.4885 6.80708 22.4005 6.20345 22.286 5.67158C22.1551 5.07418 21.8706 4.57078 21.4328 4.16155C20.995 3.75223 20.4855 3.51496 19.9042 3.44938C18.0871 3.24492 15.3413 3.14258 11.6666 3.14258C7.99182 3.14258 5.24592 3.24492 3.42895 3.44938C2.84776 3.51492 2.34023 3.75223 1.90658 4.16155C1.47275 4.57065 1.19037 5.07405 1.05939 5.67158C0.936752 6.20362 0.84456 6.80721 0.783199 7.48253C0.721924 8.15759 0.687094 8.71611 0.678967 9.15824C0.670668 9.60019 0.666626 10.214 0.666626 10.9998C0.666626 11.7855 0.670668 12.3994 0.67901 12.8413C0.687137 13.2835 0.721967 13.8419 0.783242 14.5169C0.844603 15.1923 0.932624 15.796 1.04722 16.3279C1.1782 16.9255 1.46256 17.4288 1.90043 17.8379C2.33838 18.2471 2.84798 18.4844 3.42899 18.55C5.24596 18.7546 7.99169 18.8569 11.6666 18.8569C15.3416 18.8569 18.0872 18.7546 19.9043 18.55C20.4855 18.4845 20.9928 18.2471 21.4267 17.8379C21.8605 17.4288 22.1427 16.9252 22.2737 16.3279C22.3964 15.796 22.4885 15.1923 22.5501 14.5169C22.6112 13.842 22.646 13.2832 22.6542 12.8413C22.6625 12.3994 22.6666 11.7855 22.6666 10.9998C22.6666 10.214 22.6625 9.60019 22.6542 9.15824ZM16.0126 11.6627L9.727 15.5912C9.61236 15.673 9.47308 15.7139 9.30947 15.7139C9.18679 15.7139 9.05994 15.681 8.929 15.6156C8.65896 15.4684 8.52399 15.2392 8.52399 14.9282V7.07132C8.52399 6.76047 8.65901 6.5312 8.929 6.38392C9.20734 6.23639 9.47326 6.24464 9.727 6.40847L16.0127 10.337C16.2581 10.4758 16.3808 10.697 16.3808 10.9998C16.3808 11.3025 16.2581 11.5237 16.0126 11.6627Z" fill="black"/>
</g>
<defs>
<clipPath id="clip0_567:1425">
<rect width="22" height="22" fill="white" transform="translate(0.666626)"/>
</clipPath>
</defs>
</svg>
